<?xml version="1.0" standalone="no"?>
<!DOCTYPE svg PUBLIC "-//W3C//DTD SVG 1.1//EN" "http://www.w3.org/Graphics/SVG/1.1/DTD/svg11.dtd" >
<svg xmlns="http://www.w3.org/2000/svg">
<metadata>
This is a custom SVG webfont generated by Font Squirrel.
Copyright   :  2000 Adobe Systems Incorporated All Rights Reserved
Designer    : Carol Twombly
Foundry URL : httpwwwadobecomtype
</metadata>
<defs>
<font id="ChaparralProSemiboldItalic" horiz-adv-x="1083" >
<font-face units-per-em="2048" ascent="1516" descent="-532" />
<missing-glyph horiz-adv-x="393" />
<glyph unicode=" "  horiz-adv-x="393" />
<glyph unicode="&#x09;" horiz-adv-x="393" />
<glyph unicode="&#xa0;" horiz-adv-x="393" />
<glyph unicode="!" horiz-adv-x="559" d="M74 94q0 57 41 98t98 41h2q57 0 89 -37.5t32 -86.5q0 -55 -40 -91t-93 -36q-61 0 -95 31.5t-34 80.5zM178 373q4 39 21.5 212t23.5 226q23 215 41 496q41 10 144.5 22t138.5 12h2v-4q-111 -477 -223 -950q-21 -4 -148 -14z" />
<glyph unicode="&#x22;" horiz-adv-x="743" d="M193 909q18 201 38 502q70 23 203 23q-117 -489 -121 -512q-40 -13 -120 -13zM532 909q27 287 37 502q70 23 205 23q-117 -489 -121 -512q-41 -13 -121 -13z" />
<glyph unicode="#" d="M39 436q14 82 29 129h227q10 31 92 281q-82 2 -227 2q12 76 24 119q164 0 244 2q57 164 121 354h141q-12 -33 -35.5 -102.5t-46 -133t-41.5 -118.5q33 0 105.5 1t107.5 1q29 82 119 352q25 0 73 -1t70 -1q-20 -57 -63 -181t-59 -169q39 0 108.5 1t97.5 1 q-10 -68 -26 -127h-226l-94 -283h224q-10 -68 -27 -121q-33 0 -115 -1t-125 -1q-100 -287 -135 -385q-86 0 -129 2q27 74 72 207t59 176q-70 -2 -219 -2q-125 -360 -133 -383q-39 -2 -129 2q68 193 129 381q-39 0 -112.5 -1t-100.5 -1zM430 565q66 -2 217 -2l92 283h-215 q-18 -53 -51 -152z" />
<glyph unicode="$" d="M39 127q8 39 37.5 86t60.5 70q129 -92 262 -101q16 88 74 408q-141 59 -215 127.5t-74 183.5v2q0 86 53.5 161t122.5 114q104 59 256 69q6 31 17.5 96.5t17.5 98.5q68 14 127 16q-29 -158 -39 -209q170 4 258 -49q-8 -39 -35.5 -86t-54.5 -67q-104 66 -192 73 q-10 -61 -34 -188t-34 -191q147 -55 215 -122.5t68 -182.5q0 -76 -40 -149.5t-106 -122.5q-111 -82 -290 -101l-37 -196q-41 -4 -119 -8l37 196q-219 0 -336 72zM381 932q0 -55 35 -88t119 -64q27 150 59 342q-78 0 -133 -39q-80 -53 -80 -149v-2zM516 182q88 6 143 51 q74 59 74 152v2q0 59 -34.5 98t-112.5 70q-12 -59 -35 -186.5t-35 -186.5z" />
<glyph unicode="%" horiz-adv-x="1660" d="M119 926q0 88 43 183t114 153q96 78 226 77q733 6 823 13q27 -41 49 -97q-78 -100 -245.5 -319t-243.5 -318q-78 -100 -257 -336.5t-261 -340.5q-51 31 -103 67q25 33 512 674q203 264 412 549l-2 8q-147 2 -486 2q55 -61 56 -182q0 -98 -44 -191.5t-120 -152.5 q-88 -72 -217 -72q-115 0 -185 76q-71 78 -71 207zM295 891q0 -78 29 -113q29 -37 77 -37h2q51 0 89 41q35 35 62.5 125t27.5 185q0 74 -25 110q-27 39 -76 39q-57 0 -96 -39q-39 -43 -64.5 -135t-25.5 -176zM920 262q0 86 43 179.5t112 152.5q98 80 225 80q119 0 187 -72 q70 -76 69 -211q0 -94 -43 -187t-120 -153q-88 -72 -217 -71h-2q-113 0 -183 75q-71 78 -71 207zM1096 227q0 -80 28 -112q27 -37 76 -37h2q55 0 90 41q33 35 60.5 125t27.5 178q0 82 -24 115q-27 39 -76 38q-55 0 -92 -38q-41 -41 -66.5 -132.5t-25.5 -177.5z" />
<glyph unicode="&#x26;" horiz-adv-x="1425" d="M18 307q0 133 90.5 246t245.5 174l2 8q-135 121 -135 262q0 145 131 254q113 88 291 88q156 0 238 -77q80 -76 80 -191q0 -219 -295 -346v-8q78 -68 162.5 -163t136.5 -171q92 100 118 258q2 20 -12 21l-108 4q8 57 22 116h219q31 0 93.5 1t91.5 1q-6 -63 -19 -118 l-102 -4q-59 -225 -224 -379q23 -29 58 -78t37 -51q20 -33 53 -33l135 -2q-6 -59 -22 -117q-119 -6 -314 -16q-8 10 -47 68.5t-61 88.5q-111 -82 -208 -122.5t-245 -40.5q-188 0 -293 79q-119 98 -119 248zM248 346q0 -98 67 -166q68 -61 181 -61q172 0 313 127 q-80 111 -181.5 222.5t-185.5 174.5q-195 -113 -194 -295v-2zM434 1022q0 -68 31 -113t98 -108q203 88 203 258q0 68 -37 110q-39 47 -108 48q-80 0 -129 -48q-57 -57 -58 -145v-2z" />
<glyph unicode="'" horiz-adv-x="415" d="M195 909q18 201 38 502q70 23 203 23q-117 -489 -121 -512q-40 -13 -120 -13z" />
<glyph unicode="(" horiz-adv-x="737" d="M129 371v2q0 330 196.5 638t483.5 455q20 -31 45 -94q-207 -131 -360.5 -415.5t-153.5 -618.5q0 -195 54.5 -331t154.5 -257q-37 -41 -76 -74q-344 275 -344 695z" />
<glyph unicode=")" horiz-adv-x="737" d="M-102 -236q211 145 364.5 423t153.5 620q0 352 -211 584q33 39 71 77q152 -113 251.5 -287.5t99.5 -406.5v-2q0 -340 -198 -644t-480 -452q-37 57 -51 88z" />
<glyph unicode="*" horiz-adv-x="774" d="M102 950l260 142l-219 149q39 55 70 88l199 -162l32 267q61 4 113 0l-55 -267l227 158q29 -39 57 -98l-260 -144l215 -153q-41 -57 -71 -88l-197 166l-35 -269q-55 -6 -112 0l55 267l-223 -154q-36 53 -56 98z" />
<glyph unicode="+" d="M104 414q2 23 4.5 69.5t2.5 69.5q221 0 348 2v379q147 6 153 6q-4 -217 -4 -383q59 0 178 1t172 3q2 -53 -6 -147h-346q0 -74 -1 -208t-1 -188q-68 -6 -145 -6v402h-355z" />
<glyph unicode="," horiz-adv-x="540" d="M-18 -244q172 119 172 219q0 63 -93 95q8 82 54.5 128t103.5 46q53 0 92 -46t39 -110v-2q0 -129 -92 -240.5t-215 -171.5q-47 62 -61 82z" />
<glyph unicode="-" horiz-adv-x="663" d="M66 434q10 68 22 135q80 2 236 2q45 0 134 1t132 3q-6 -47 -25 -141h-258h-2h-239z" />
<glyph unicode="." horiz-adv-x="540" d="M78 109q0 53 39 95t98 42h2q66 0 97.5 -38t31.5 -89q0 -59 -40 -98t-99 -39q-57 0 -93 36t-36 91z" />
<glyph unicode="/" horiz-adv-x="829" d="M-88 -43q158 258 453 745q172 289 426 713q82 -47 127 -82q-78 -125 -251 -408.5t-175 -287.5q-25 -41 -463 -750q-58 31 -117 70z" />
<glyph unicode="0" d="M78 428q0 227 80 448.5t202 333.5q82 72 156 100.5t168 28.5q174 0 264 -118q88 -109 88 -322v-2q0 -246 -79.5 -466t-208.5 -331q-137 -121 -328 -120q-147 0 -238 100q-104 112 -104 348zM307 369q0 -121 31 -187q37 -78 127 -78q82 0 143 68q80 86 139.5 325.5 t59.5 446.5q0 129 -29 191q-41 80 -129 79h-2q-80 0 -145 -71q-76 -88 -135.5 -325.5t-59.5 -448.5z" />
<glyph unicode="1" d="M70 0q10 70 24 129l275 6q8 0 8 10q33 178 90 513t72 419q-23 -4 -338 -57q-6 123 -6 127q102 29 251.5 79t251 86t105.5 36q8 0 6 -11q-33 -190 -106.5 -605t-104.5 -597l303 -4q-8 -57 -22 -131q-74 0 -216.5 1t-203.5 1q-59 0 -188 -1t-201 -1z" />
<glyph unicode="2" d="M14 123q197 143 367 289q174 147 276.5 282t102.5 283q0 92 -39 147q-51 70 -162 70q-96 0 -162 -43q-12 -8 -14 -25l-57 -198q-66 6 -150 16q43 244 60 324q162 72 354 71q221 0 323 -112q84 -90 84 -236q0 -100 -46 -201.5t-130 -192.5t-141 -142.5t-135 -112.5 q-123 -100 -228 -174v-8q180 2 596 14l5 -2q-12 -80 -37 -174q-23 0 -254.5 1t-317.5 1h-260q-25 74 -35 123z" />
<glyph unicode="3" d="M53 328q63 10 152 18l26 -188q4 -16 15 -19q49 -25 133 -24q135 0 215 59q94 74 94 209q0 100 -75.5 163.5t-200.5 63.5h-111q2 14 18 140q207 -2 322 74.5t115 199.5q0 72 -39 119q-45 59 -162 59q-100 0 -154 -37q-12 -8 -14 -20l-51 -182q-111 8 -152 16 q35 207 54 297q166 63 360 63q213 0 305 -90q86 -82 86 -200q0 -123 -88 -211t-225 -127l-2 -13q131 -27 195.5 -109.5t64.5 -187.5q0 -205 -195 -327q-147 -94 -413 -94q-178 0 -267 26q-2 59 -4 173t-2 149z" />
<glyph unicode="4" d="M25 502q31 35 146.5 169t188.5 218q291 330 396 442q104 0 200 -6q-16 -90 -66 -384t-79 -449q43 0 118 1t93 1q-18 -94 -29 -140h-207q-18 -109 -41 -229l156 -4q-8 -47 -22 -119h-277q-43 0 -133 -1t-131 -1q4 20 12 59t12 60l166 6q10 0 11 10q10 57 39 213 q-74 -2 -502 -2q-35 93 -51 156zM215 506q-8 -12 4 -12q197 -4 383 -5l111 601l-13 2q-47 -57 -127.5 -154.5t-126.5 -151.5q-157 -190 -231 -280z" />
<glyph unicode="5" d="M66 315q59 12 149 21l25 -178q0 -14 14 -23q43 -20 119 -20q145 0 227 71q104 88 105 244q0 115 -82 185.5t-234 70.5q-111 0 -196 -14l-15 18q82 324 166 631h350q233 0 350 2q-14 -94 -38 -180q-215 0 -543 4q-12 -49 -41 -147.5t-41 -147.5q70 6 125 6 q207 0 316.5 -111.5t109.5 -269.5q0 -127 -59.5 -230.5t-145.5 -160.5q-162 -106 -405 -106q-160 0 -248 20q-4 102 -8 315z" />
<glyph unicode="6" d="M86 416q0 233 75 425.5t187 311.5q180 186 455 186q96 0 182 -22q0 -195 -2 -297q-117 -16 -147 -19l-21 160q-4 18 -10 23q-20 16 -82 16q-129 0 -217 -110q-100 -129 -150 -375h11q131 111 288.5 110.5t237.5 -102.5q78 -96 78 -238q0 -123 -53.5 -230.5t-139.5 -174.5 q-127 -100 -299 -100q-176 0 -278 108q-115 121 -115 328zM338 545q-45 -238 14 -357q47 -88 148 -88q88 0 149 66q92 94 92 289q0 100 -39 159q-41 59 -129 60h-2q-55 0 -120.5 -34t-112.5 -95z" />
<glyph unicode="7" d="M125 958q47 186 96 367q4 0 71.5 -2t110.5 -2h629q20 -63 37 -170q-307 -430 -520 -901q-47 -106 -66 -246q-74 -10 -237 -10q20 152 80 266q176 319 526 868l-4 11q-426 2 -471 -4q-39 -2 -55 -43l-56 -160q-108 18 -141 26z" />
<glyph unicode="8" d="M35 293q0 123 92 226.5t238 162.5l2 10q-164 100 -164 273q0 96 53 174t111 116q127 84 297 84q174 0 270 -92q86 -80 86 -190q0 -223 -264 -342l-2 -10q106 -49 163.5 -132.5t57.5 -177.5q0 -201 -195 -332q-129 -84 -338 -83q-180 0 -297 90q-110 86 -110 223zM260 319 q0 -90 45 -141q61 -76 172 -76q106 0 180 56q94 74 95 190v2q0 90 -62.5 153.5t-206.5 119.5q-98 -47 -160.5 -128.5t-62.5 -175.5zM414 997q0 -74 48 -124t169 -103q186 90 186 258q0 70 -35 123q-18 29 -58 47.5t-83 18.5q-92 0 -147 -46q-80 -66 -80 -172v-2z" />
<glyph unicode="9" d="M104 293q84 14 144 20l28 -170q4 -16 15 -20q27 -16 90 -17q135 0 229 115q92 113 146 387h-11q-139 -102 -284 -102q-147 0 -238 100q-80 92 -80 246q0 109 56.5 217.5t144.5 173.5q129 96 293 96q168 0 270 -112q109 -115 109 -332q0 -248 -80 -452.5t-182 -301.5 q-174 -162 -428 -161q-111 0 -209 14q-5 98 -13 299zM371 868q0 -106 37 -157q43 -66 131 -66h2q123 0 229 113q20 131 15 226t-29 144q-43 90 -142 91q-88 0 -143 -62q-100 -113 -100 -289z" />
<glyph unicode=":" horiz-adv-x="540" d="M78 109q0 53 39 95t98 42h2q66 0 97.5 -39t31.5 -90q0 -57 -39 -96t-98 -39q-57 0 -94 36t-37 91zM193 739q0 53 38.5 95.5t98.5 42.5h2q66 0 97.5 -39t31.5 -90q0 -57 -40 -96.5t-97.5 -39.5t-94 36t-36.5 91z" />
<glyph unicode=";" horiz-adv-x="540" d="M-18 -246q172 119 172 219q0 63 -93 95q8 82 54.5 128t103.5 46h2q51 0 90 -46t39 -110q0 -129 -91 -241.5t-216 -172.5q-26 31 -61 82zM193 739.5q0 55.5 38.5 96.5t98.5 41h2q66 0 97.5 -39t31.5 -90q0 -57 -40 -96.5t-97.5 -39.5t-94 36t-36.5 91.5z" />
<glyph unicode="&#x3c;" d="M207 551q410 297 584 420q43 -51 75 -109q-283 -215 -475 -368q166 -141 477 -396q-41 -63 -82 -104q-12 10 -575 436q-4 39 -4 121z" />
<glyph unicode="=" d="M123 242q-2 31 4 145h850q0 -45 -4 -139q-100 0 -850 -6zM123 586q0 49 4 139q84 0 852 6q0 -78 -6 -145h-850z" />
<glyph unicode="&#x3e;" d="M213 102q303 242 479 385q-162 133 -473 381q41 66 78 107q154 -111 577 -424q2 -37 3 -123q-16 -12 -582 -430q-35 36 -82 104z" />
<glyph unicode="?" horiz-adv-x="915" d="M160 993q41 188 67 295q150 61 348 62q174 0 264.5 -77t92.5 -200v-2q2 -133 -90 -245.5t-307 -225.5q-51 -29 -52 -70q-6 -55 -2 -137q-68 -27 -157 -35q-41 92 -41 201q0 20 4 49q109 70 161 107t114.5 93t87 111.5t24.5 120.5q0 74 -41 118t-117 44q-78 0 -125 -31 q-10 -6 -20 -22l-62 -174q-86 6 -149 18zM209 90q0 55 44 96t101 41h2q57 0 86 -35.5t29 -89.5q0 -51 -42 -85.5t-101 -34.5q-55 0 -87 29.5t-32 78.5z" />
<glyph unicode="@" horiz-adv-x="1337" d="M55 317q0 94 32 196.5t96.5 200t152.5 175.5t213 125t266 47q203 0 325 -109.5t122 -294.5q0 -229 -150 -360q-127 -106 -332 -107q-14 0 -35.5 12.5t-29.5 26.5q2 33 20 101l-12 4q-57 -55 -129 -99.5t-119 -44.5q-27 0 -75 29t-64 60q-4 20 -4 45q0 78 30 180 q35 102 114 189t181 87q92 0 156 -57h8l35 59q61 -12 131 -30q-20 -78 -110 -453q-4 -12 12 -12q80 4 149 67q106 102 107 289q0 147 -93.5 240.5t-279.5 93.5q-176 0 -316.5 -102.5t-210 -249t-69.5 -299.5q0 -170 104.5 -253t254.5 -83q154 0 276 71q25 -39 29 -71 q-141 -86 -351 -86q-182 0 -308 106t-126 307zM508 358q0 -41 39 -41q37 0 108.5 59.5t92.5 106.5q20 63 38 146q-35 47 -102 47q-86 0 -139 -144q-37 -92 -37 -172v-2z" />
<glyph unicode="A" horiz-adv-x="1253" d="M-106 0q6 43 22 129l104 6q8 0 17 12q106 190 339.5 621.5t311.5 574.5q53 4 178 5q35 -195 110 -626t103 -587l117 -6q-8 -51 -22 -129q-31 0 -105 1t-111 1q-49 0 -147 -1t-139 -1q4 20 11 63t11 66l142 6q12 0 8 12q-25 160 -37 222q0 10 -12 10l-453 -4 q-12 -25 -117 -240l154 -6q-14 -92 -23 -129q-37 0 -131 1t-147 1q-31 0 -93 -1t-91 -1zM410 518l-2 -6q0 -5 6 -4l374 -2q-66 418 -86 557h-14q-37 -70 -134 -260.5t-144 -284.5z" />
<glyph unicode="B" horiz-adv-x="1206" d="M-10 0q4 20 11 62t11 63l127 4q12 0 15 14l182 1053l-139 4q20 113 24 125q141 6 385 6q274 0 379 -59q66 -37 100.5 -99.5t34.5 -125.5q0 -115 -82 -204t-202 -128l-2 -13q125 -25 192.5 -103.5t67.5 -176.5q0 -188 -167 -306t-429 -118q-29 0 -130.5 1t-119.5 1h-258z M383 188q-1 -7 -1 -13q0 -30 25 -41q30 -13 107 -13q137 0 236.5 72.5t99.5 203.5q0 84 -66.5 155t-216.5 71q-88 0 -106 -5zM485 750q10 -4 84 -5q127 0 223.5 72t96.5 195q0 80 -56.5 138t-170.5 58q-68 0 -99 -6z" />
<glyph unicode="C" horiz-adv-x="1177" d="M102 520q0 209 101.5 393.5t253.5 292.5q199 145 477 146q176 0 262 -43q-31 -270 -45 -383q-68 -6 -141 -6l2 219q0 20 -11 26q-51 33 -145 33q-158 0 -272 -102q-111 -98 -171.5 -246t-60.5 -299q0 -193 74 -289q39 -53 111.5 -87t158.5 -34q139 0 338 70q4 -43 4 -141 q-254 -90 -405 -90q-227 0 -377 137q-154 137 -154 403z" />
<glyph unicode="D" horiz-adv-x="1378" d="M-2 -2q8 61 22 127l119 6q14 0 15 14l182 1049l-133 4q12 68 24 129q246 4 439 4q289 0 440 -110q203 -150 203 -447q0 -207 -99.5 -384t-251.5 -275q-176 -117 -466 -117q-41 0 -131.5 1t-114.5 1q-39 0 -124 -1t-124 -1zM387 195q-1 -8 -1 -16q0 -28 18 -41 q24 -15 104 -15q213 0 342 108q90 76 149.5 213.5t59.5 315.5q0 217 -101 330q-104 117 -296 116q-61 0 -97 -8z" />
<glyph unicode="E" horiz-adv-x="1122" d="M-4 -2q16 86 22 127l125 6q8 0 13 10l180 1055l-137 4l24 129q37 0 123 -1t125 -1q33 0 232.5 1t222.5 1h174q-12 -111 -41 -336q-23 -2 -67 -4t-58 -2l-2 164q0 33 -41 37q-109 10 -307 10q-18 0 -21 -8l-78 -449q45 0 134.5 1t132.5 3q31 0 41 9.5t16 29.5l27 93 q14 1 33 0q37 0 92 -3q-6 -43 -37 -202q-6 -37 -17.5 -105.5t-15.5 -93.5q-41 -2 -127 -2l6 92q2 27 -7 37t-40 10q-80 2 -260 2l-74 -440q-4 -27 16.5 -35t96.5 -8q195 0 256 16q31 6 49 43l86 172q57 -12 125 -32q-70 -205 -117 -330q-31 0 -261 1t-388 1q-45 0 -132 -1 t-124 -1z" />
<glyph unicode="F" horiz-adv-x="1091" d="M0 0q4 20 12 63t13 64l120 6q10 0 11 12l182 1051l-133 4q4 20 24 129h244q31 0 229.5 1t219.5 1q133 0 174 2q-16 -190 -37 -354q-35 -4 -133 -8l-6 178q0 33 -39 37q-113 10 -279 10q-6 0 -18.5 -1t-16.5 -1l-88 -489q180 0 264 2q47 0 60 41l26 92q32 2 64.5 2 t64.5 -2q-8 -37 -21 -109t-19 -104q-14 -100 -35 -201q-43 -2 -131 -2l10 98q2 27 -7.5 36t-37.5 11q-78 2 -260 2l-76 -436l223 -6q-12 -76 -26 -129q-43 0 -156 1t-170 1q-45 0 -130 -1t-122 -1z" />
<glyph unicode="G" horiz-adv-x="1343" d="M102 524q0 219 105.5 403.5t265.5 286.5q211 135 506 136q195 0 287 -62q-12 -119 -45 -360q-16 0 -44 -2t-51.5 -3t-46.5 -1l4 204q0 18 -14 33q-57 51 -172 51q-178 0 -305 -108q-98 -84 -167 -236.5t-69 -328.5q0 -178 72 -277q109 -150 313 -149q125 0 129 34l52 324 l-191 4q6 53 23 133h307h219q-12 -92 -23 -133l-98 -4q-8 0 -8 -8l-74 -408q-113 -74 -385 -73q-281 0 -440 155q-150 147 -150 389z" />
<glyph unicode="H" horiz-adv-x="1488" d="M0 0q4 20 11 63t12 66l120 6q8 0 13 12l178 1049l-129 6q6 43 22 129q37 0 127 -1t131 -1q45 0 134.5 1t125.5 1q-6 -43 -22 -129l-150 -6q-8 0 -8 -8l-71 -424q0 -6 10 -6l559 -2l74 440l-154 4q4 16 11 61.5t12 67.5h276q41 0 122 1t114 1q-12 -86 -23 -129l-119 -6 q-8 0 -8 -8l-186 -1053l133 -6q-12 -86 -23 -129q-33 0 -119 1t-126 1q-47 0 -141.5 -1t-133.5 -1q6 43 23 129l151 6q8 0 12 12l78 465q0 10 -8 11l-561 -5l-86 -483l162 -6q-6 -43 -23 -129q-37 0 -129 1t-139 1q-41 0 -128 -1t-124 -1z" />
<glyph unicode="I" horiz-adv-x="690" d="M-8 0l24 129l127 6q8 0 13 10l180 1049l-143 6q4 25 24 129q37 0 131 -1t139 -1t131.5 1t120.5 1q-8 -55 -26 -129l-142 -6q-6 0 -6 -8l-184 -1051l158 -6q-10 -70 -25 -129q-35 0 -126 1t-136 1q-41 0 -131 -1t-129 -1z" />
<glyph unicode="J" horiz-adv-x="1040" d="M14 0q2 59 5.5 178t5.5 178q86 12 141 15l18 -207q2 -16 15 -25q47 -29 116 -28q123 0 193 79q59 70 94 289q41 272 103 719l-236 6q2 14 11 58.5t14 66.5h360h240q-8 -59 -23 -125l-129 -4q-8 0 -8 -10q-61 -438 -100 -674q-43 -274 -160 -393q-156 -156 -408 -156 q-160 0 -252 33z" />
<glyph unicode="K" horiz-adv-x="1288" d="M4 0l25 129l116 6q4 0 9 8l182 1053l-129 6q4 25 24 129q35 0 123 -1t131 -1q41 0 121 1t111 1q-12 -78 -25 -129l-121 -6q-8 0 -8 -10l-82 -447q82 4 117 13q68 57 195 193t211 239q10 10 -5 10l-112 6q4 16 26 129h283q29 0 84 1t76 1q-4 -25 -25 -129l-88 -6 q-246 -250 -477 -473l-2 -12q104 -66 168 -262q74 -197 102 -259q23 -53 62 -55l129 -8q-8 -53 -27 -123q-106 -4 -184 -4q-37 -2 -148 -2q-47 78 -137 346q-84 268 -170 268q-74 0 -98 -2l-84 -475l147 -6q-20 -109 -26 -129q-33 0 -119 1t-129 1q-41 0 -125 -1t-121 -1z " />
<glyph unicode="L" horiz-adv-x="1077" d="M-2 0q4 20 12 63t13 64l120 6q10 0 11 10l184 1053l-131 6q2 16 24 127h258h265q-8 -55 -27 -129l-152 -4q-8 0 -8 -10l-182 -1012q-6 -18 -1 -27.5t20.5 -12.5t60.5 -3q211 0 270 12q31 10 45 45l94 207q47 -6 138 -28q-68 -211 -125 -369q-39 0 -262.5 1t-376.5 1h-250 z" />
<glyph unicode="M" horiz-adv-x="1712" d="M-29 0q4 20 11.5 63t11.5 66l121 6q10 0 10 10q111 610 186 1045l-131 4l25 135h409q47 -262 193 -1020h12q106 195 311 586t230 434h389q-6 -43 -23 -133l-114 -6q-6 0 -10 -10q-4 -25 -172 -1045l133 -6q-8 -51 -23 -129q-33 0 -112.5 1t-118.5 1q-45 0 -131 -1 t-121 -1q6 43 22 129l135 6q12 0 13 8q16 94 157 916h-14q-358 -690 -567 -1034q-33 -2 -129 -2q-96 389 -207 1046h-16q-31 -178 -91.5 -510t-76.5 -424l161 -6q-10 -70 -24 -129q-35 0 -123 1t-129 1q-37 0 -102.5 -1t-94.5 -1z" />
<glyph unicode="N" horiz-adv-x="1447" d="M-12 0l24 129l119 4q8 2 12 12l179 1053l-138 4q4 20 11.5 62.5t11.5 64.5h328q289 -590 501 -1038l13 2q12 72 63 401.5t78 503.5l-180 2q4 18 11 62.5t11 66.5h268q35 0 105 1t96 1q-4 -35 -22 -127l-113 -6q-6 0 -10 -12l-205 -1176q-53 -25 -166 -24 q-248 420 -520 1013h-14q-29 -170 -82.5 -481t-65.5 -383l180 -4q-8 -51 -22 -131q-43 0 -139.5 1t-143.5 1q-35 0 -99 -1t-91 -1z" />
<glyph unicode="O" horiz-adv-x="1449" d="M106 514q0 231 104.5 421.5t248.5 291.5q178 123 415 123q209 0 340 -117q88 -76 129 -189.5t41 -226.5v-2q0 -213 -86 -394t-219 -290q-186 -152 -454 -151q-238 0 -383 151q-136 141 -136 383zM358 500q0 -178 78 -283q82 -106 233.5 -106t260.5 106q82 78 141 242 t59 360q0 188 -71 289q-76 111 -223 111q-154 0 -271 -115q-82 -80 -144.5 -242t-62.5 -360v-2z" />
<glyph unicode="P" horiz-adv-x="1150" d="M6 0q4 20 12.5 63t12.5 64l112 6q10 0 11 10l180 1051l-125 4l24 129q217 4 367 4q201 0 309 -43q104 -41 155.5 -128t51.5 -193q0 -145 -84 -260t-203 -164q-127 -53 -292 -54q-66 0 -103 5l-63 -361l207 -4q-12 -76 -25 -129h-317h-230zM461 643q0 -6 6 -10t19.5 -5 t27.5 -2t33 -1q121 0 196 47q66 39 105 112.5t39 167.5q0 109 -60.5 180.5t-185.5 71.5q-63 0 -82 -6z" />
<glyph unicode="Q" horiz-adv-x="1445" d="M109 516v2q0 231 102 420.5t254 292.5q174 119 397 119q195 0 320 -93q98 -72 147 -193.5t49 -250.5q0 -205 -83 -383t-210 -283q-113 -96 -227 -129l-2 -10q123 -86 248 -137q70 -27 160 -27q68 0 145 21q12 -78 14 -133q-176 -61 -290 -62q-66 0 -138 39 q-172 98 -350 271h-29q-119 0 -219 45t-164 118q-124 148 -124 373zM358 514q0 -201 80 -301q80 -102 230 -102q158 0 266 114q86 92 139 250t53 348q0 174 -71 287q-72 109 -224 109q-150 0 -262 -107q-92 -90 -151.5 -258t-59.5 -338v-2z" />
<glyph unicode="R" horiz-adv-x="1230" d="M4 0q4 20 11.5 62t11.5 65l116 6q10 6 11 10l182 1053l-129 4q6 45 22 127q221 4 377 4q203 0 309 -37q109 -35 163.5 -116.5t54.5 -176.5q0 -133 -92.5 -236t-225.5 -147v-10q18 -8 32.5 -20.5t29 -34t23.5 -37.5t21.5 -52t19.5 -57.5t23.5 -72.5t24.5 -78 q23 -68 45.5 -92.5t55.5 -28.5l88 -6q-12 -82 -23 -125q-39 -2 -141 -2q-86 -4 -170 -4q-29 55 -87.5 240.5t-64.5 201.5q-23 57 -56.5 81t-94.5 24q-72 0 -92 -4l-74 -406l145 -8q-10 -63 -24 -127q-33 0 -120 1t-138 1q-43 0 -122 -1t-112 -1zM469 672q16 -2 90 -2 q154 0 245 86t91 221q0 100 -60.5 165.5t-168.5 65.5q-61 0 -103 -8z" />
<glyph unicode="S" horiz-adv-x="1052" d="M51 39q4 59 13.5 174t13.5 168q41 6 139 10l14 -198q4 -23 13 -27q61 -45 176 -45q137 0 209 59q78 59 78 170q0 45 -13.5 78t-53.5 63.5t-68.5 47t-104.5 53.5q-139 68 -210 148.5t-71 197.5q0 190 172 309q139 102 371 103q174 0 266 -54q-4 -47 -9 -102t-11 -121.5 t-10 -105.5q-37 -4 -136 -9l-10 181q0 20 -10 26q-41 41 -143 41q-115 0 -174 -49q-84 -66 -84 -172q0 -76 46 -115t179 -102q14 -6 22 -10q143 -68 208 -148t65 -186q0 -213 -174 -340q-135 -104 -387 -104q-207 0 -316 59z" />
<glyph unicode="T" horiz-adv-x="1161" d="M88 958q49 250 74 373q18 0 82.5 -1t105.5 -1h367h356q80 2 176 2q-25 -203 -49 -373q-23 -2 -70 -5t-69 -5l2 199q0 35 -37 39q-92 6 -225 6l-185 -1055l181 -6q-2 -8 -25 -131q-39 0 -138 1t-147 1q-45 0 -139 -1t-137 -1l25 129l143 6q10 0 10 10l178 1047 q-160 0 -223 -8q-41 -4 -53 -39l-62 -197q-65 2 -141 10z" />
<glyph unicode="U" horiz-adv-x="1347" d="M166 1200l24 129q35 0 117 -1t121 -1q49 0 142.5 1t131.5 1q-10 -63 -24 -129l-150 -6q-10 0 -14 -14l-111 -637q-15 -86 -15 -153q0 -110 42 -169q68 -92 199 -92q125 0 217 88q98 88 139 328q59 334 107 641q0 8 -9 8l-157 4q4 16 11 61.5t11 67.5h252q39 0 114 1 t105 1q-12 -80 -22 -129l-117 -6l-111 -631q-55 -311 -211 -450q-150 -133 -366 -133q-229 0 -342 120q-92 98 -93 278q0 71 15 154l113 664z" />
<glyph unicode="V" horiz-adv-x="1259" d="M90 1200q4 20 11.5 63.5t11.5 65.5q33 0 112.5 -1t118.5 -1q55 0 158.5 1t144.5 1q-12 -86 -22 -129l-174 -6q18 -193 51 -424q27 -209 71 -532h19q176 340 233 456q164 328 230 486q4 14 -6 14l-152 4q4 23 11 67t10 62h282q35 0 97.5 1t86.5 1q-12 -86 -22 -129 l-102 -6q-51 -92 -153.5 -286.5t-133.5 -252.5q-248 -451 -381 -673q-82 -4 -184 -5q-68 328 -123 697q-47 289 -78 512q0 6 -8 10z" />
<glyph unicode="W" horiz-adv-x="1742" d="M102 1202q8 51 23 127h225h305q-20 -102 -26 -127l-168 -6q-2 -109 -2 -414v-512h14q70 141 252 539.5t207 450.5q25 4 170 4q16 -154 53 -557.5t39 -436.5h14q29 78 88.5 232.5t85.5 224.5q98 262 156 457q4 12 -6 12l-160 4q6 35 25 127q45 0 143 1t148 1q121 0 172 2 q-12 -78 -25 -129l-96 -6q-117 -293 -223 -537q-166 -397 -297 -677q-25 -2 -181 -2q-57 389 -106 907h-12q-203 -432 -451 -905q-29 -2 -184 -2q-25 307 -41 698q-8 160 -21 512q0 8 -10 8z" />
<glyph unicode="X" horiz-adv-x="1243" d="M-90 0q4 20 12 64.5t12 64.5l101 6q8 0 22 10q106 117 461 508l4 17q-41 84 -124 258t-124 258q-4 8 -12 8l-117 6q4 16 12.5 60.5t12.5 66.5h227q55 0 155.5 1t139.5 1q-12 -76 -24 -129l-144 -8q86 -219 162 -381h14q229 287 285 371q4 12 -6 12l-131 4q4 18 12 63.5 t12 65.5h285q29 0 89.5 1t84.5 1q-23 -113 -26 -129l-95 -6q-174 -201 -448 -498l-2 -14q139 -293 266 -547l125 -6q-10 -70 -25 -129q-29 0 -103.5 1t-111.5 1q-55 0 -157.5 -1t-145.5 -1l25 129l129 6q14 4 10 15l-174 382h-12q-82 -94 -318 -395l146 -8l-11 -51 q-10 -51 -16 -76h-293q-31 0 -94 -1t-90 -1z" />
<glyph unicode="Y" horiz-adv-x="1130" d="M76 1202q4 16 12 60.5t12 66.5h219q53 0 153.5 1t137.5 1q-4 -25 -24 -129l-148 -8q63 -231 160 -532h14q244 356 338 522q6 10 -4 10l-141 6q4 25 24 129h279q29 0 85 1t79 1q-23 -113 -27 -129l-88 -6q-264 -373 -502 -688l-67 -371l170 -8l-25 -129q-39 0 -133 1 t-141 1q-43 0 -136.5 -1t-138.5 -1q4 25 13.5 69t13.5 60l139 6q10 0 15 12l61 361q-74 193 -242 678q0 10 -10 10z" />
<glyph unicode="Z" horiz-adv-x="1155" d="M-29 125q176 199 543 618.5t377 432.5l-2 10h-108q-302 0 -345 -10q-33 -8 -49 -46l-82 -208q-100 16 -139 28q86 311 106 383q10 0 83 -1t108 -1l655 -2q16 -59 37 -172q-639 -731 -903 -1003l2 -9q416 0 514 21q43 10 63 55l87 199q53 -10 137 -31q-47 -160 -129 -391 q-8 0 -101.5 1t-233.5 1h-261h-322q-25 76 -37 125z" />
<glyph unicode="[" horiz-adv-x="718" d="M92 -297l297 1737q70 2 213 3t213 1q-6 -59 -22 -117l-222 -8q-10 0 -16 -16l-258 -1477l242 -8q-14 -90 -23 -119q-274 4 -424 4z" />
<glyph unicode="\" horiz-adv-x="1163" d="M82 1333q49 37 129 82q59 -100 203.5 -348t214.5 -365q291 -487 444 -745q-55 -39 -117 -70q-143 233 -456 750q-260 438 -418 696z" />
<glyph unicode="]" horiz-adv-x="718" d="M-90 -301q2 12 8 55t10 64l244 8l262 1479q4 14 -10 14l-219 8q6 63 18 117q287 -4 428 -4l-317 -1737q-141 0 -424 -4z" />
<glyph unicode="^" d="M125 711l393 589q33 2 111 3q66 -100 200 -303t191 -291q-43 -37 -111 -84q-55 76 -340 469q-322 -457 -329 -467q-62 41 -115 84z" />
<glyph unicode="_" horiz-adv-x="1024" d="M-92 -150h1024v-110h-1024v110z" />
<glyph unicode="`" horiz-adv-x="1001" d="M328 1239q49 61 106 111q90 -86 291 -287q-39 -47 -74 -76q-255 203 -323 252z" />
<glyph unicode="a" horiz-adv-x="1007" d="M29 186q0 123 59 291q25 68 62.5 135.5t90 134t122 108.5t143.5 42q117 0 209 -92h12l47 106q94 -23 168 -49q-111 -393 -180 -727q-4 -12 10 -12q31 0 127 29q12 -59 19 -119q-150 -51 -287 -51q-8 0 -32 18t-32 37q4 29 37 182l-18 4q-227 -246 -377 -250q-39 6 -88 41 t-72 80q-20 39 -20 92zM250 219q0 -37 15.5 -58.5t39.5 -21.5q59 0 173 109.5t138 181.5q25 63 62 242q-47 80 -143 80h-3q-61 0 -115.5 -65.5t-90.5 -154.5q-76 -174 -76 -313z" />
<glyph unicode="b" horiz-adv-x="1013" d="M18 10q72 289 295 1260l-172 -8q-4 43 -8 116q86 12 171 26.5t129 23t52 8.5q12 0 36 -21.5t34 -40.5q-170 -659 -190 -737l12 -6q221 270 395 272q41 -6 84 -41t72 -88q20 -37 20 -90q0 -76 -25.5 -188.5t-70.5 -202.5q-59 -127 -156.5 -220t-234.5 -93q-123 0 -232 96 l-63 -109zM274 211q25 -39 71 -67.5t87 -28.5h2q115 0 199 157q39 76 65.5 183.5t26.5 179.5q0 37 -15.5 61.5t-43.5 24.5q-74 0 -195 -125t-154 -213q-31 -115 -43 -172z" />
<glyph unicode="c" horiz-adv-x="796" d="M39 270v2q0 109 50 241t149 230q154 154 376 154q119 0 168 -43q-2 -39 -38.5 -98.5t-63.5 -71.5q-111 61 -164 61q-80 0 -135 -73q-47 -63 -80 -168t-33 -193q0 -184 148 -184q84 0 246 59q18 -51 30 -110q-207 -96 -356 -96q-123 0 -210 77.5t-87 212.5z" />
<glyph unicode="d" horiz-adv-x="1028" d="M31 184q0 135 63 305q25 70 63 135.5t90 130t121.5 103.5t145.5 39q119 0 201 -68h12q37 172 92 437l-178 -4q-2 41 -2 120q92 10 175 23.5t124 22t47 8.5q10 0 34.5 -21.5t37.5 -42.5q-47 -205 -275 -1237q-4 -12 11 -12q33 0 120 27q12 -59 19 -119q-150 -49 -285 -49 q-8 0 -32.5 18t-32.5 37q6 41 36 184l-14 6q-111 -123 -213 -187.5t-174 -66.5q-39 4 -88 38t-76 81q-22 37 -22 92zM252 225q0 -86 61 -86h2q66 0 183.5 115t142.5 190q12 43 53 242q-55 66 -147 66q-68 0 -126.5 -65.5t-96.5 -160.5q-72 -178 -72 -301z" />
<glyph unicode="e" horiz-adv-x="892" d="M37 246v2q0 113 53 251t154 240q156 158 338 158q117 0 183 -70.5t71 -162.5q-10 -59 -42 -118t-73 -83q-154 -78 -438 -78q-18 -55 -19 -119q0 -66 35 -102.5t98 -36.5q137 0 326 94q23 -57 35 -108q-227 -133 -453 -133q-104 0 -186 72.5t-82 193.5zM301 500 q13 0 25 -1q142 0 227 44q70 35 70 102q0 51 -27 90t-74 39h-2q-68 0 -125 -69q-59 -70 -94 -205z" />
<glyph unicode="f" horiz-adv-x="686" d="M10 -346q29 141 103.5 515t111.5 564h-159q4 20 13 63.5t13 63.5q27 2 78 5t74 3q10 0 14 15q29 154 63.5 229.5t114.5 142.5q160 141 363 142h2q76 0 133 -29q-2 -37 -37 -98.5t-66 -77.5q-90 45 -157 45q-63 0 -113 -57q-23 -29 -40 -77t-26.5 -88t-29.5 -147 q47 0 142 1t141 3q-10 -74 -33 -137h-277q-76 -387 -221 -1077q-68 -4 -207 -4z" />
<glyph unicode="g" horiz-adv-x="950" d="M-125 -309q0 80 45 104q18 12 215 123v12q-98 41 -98 142q0 18 27.5 40.5t144.5 94.5v12q-137 80 -137 244v2q0 164 119.5 298t322.5 134q86 0 143 -16q8 -2 33 -2q14 0 139 1t156 1q1 -14 1 -33q0 -38 -3 -96q-35 -2 -100.5 -5.5t-89.5 -3.5l-2 -10q33 -43 32 -139 q0 -131 -80 -252q-51 -74 -153 -127q-81 -42 -192 -42q-30 0 -62 3q-88 -59 -88 -88q0 -14 14 -23.5t46 -15.5t67 -10t92 -8q33 -2 49 -4q170 -14 232 -52q37 -23 64.5 -66.5t27.5 -94.5q0 -127 -147.5 -227.5t-420.5 -100.5q-186 0 -291.5 52.5t-105.5 152.5zM94 -291 q0 -55 63.5 -82.5t153.5 -27.5q133 0 222.5 44t89.5 124v2q0 47 -35 64t-129 30q-168 18 -193 22q-94 -59 -133 -96t-39 -80zM291 426q0 -70 31.5 -107.5t89.5 -37.5q78 0 135 102t57 242q0 76 -20 112q-25 53 -92 54q-86 0 -143.5 -105.5t-57.5 -257.5v-2z" />
<glyph unicode="h" horiz-adv-x="1062" d="M25 0q115 483 286 1266l-174 -13q-2 41 -2 121q74 10 158 25.5t133 26t55 10.5q10 0 35 -21.5t37 -42.5q-25 -90 -180 -723l12 -6q119 137 224.5 195.5t176.5 60.5q41 -6 83 -37t63 -74q14 -27 14 -71q0 -156 -147 -582q-8 -16 8 -16q31 0 129 24q10 -53 14 -118 q-135 -43 -315 -43q-10 0 -36 25.5t-32 47.5q90 293 115 389q43 147 43 205q0 25 -14.5 42.5t-38.5 17.5q-82 0 -201 -121t-145 -217q-37 -143 -90 -369q-72 -2 -211 -2z" />
<glyph unicode="i" horiz-adv-x="563" d="M51 844q68 8 148 22.5t128 22.5t58 8t37 -23.5t35 -42.5q-139 -612 -162 -700q-4 -14 8 -14q45 0 143 28q12 -86 17 -118q-150 -45 -309 -45q-12 0 -43 26.5t-39 48.5q10 49 67.5 301t81.5 369l-168 -4q-2 41 -2 121zM262 1188q0 53 41 93t103 40h2q61 0 94 -38t33 -85 q0 -57 -42 -98t-96 -41q-59 0 -97 39t-38 90z" />
<glyph unicode="j" horiz-adv-x="550" d="M-225 -360q168 59 243 151q45 53 66.5 126t48.5 220q2 16 96 590l-192 -6q0 82 2 121q76 10 161 23.5t133 22.5t56 9q12 0 38 -21.5t38 -39.5q-84 -496 -125 -691q-29 -141 -55.5 -215.5t-89.5 -167.5q-47 -72 -112 -134t-110 -93t-57 -31q-29 2 -82 52.5t-59 83.5z M240 1186q0 53 38.5 93t100.5 40h2q59 0 93 -38t34 -85q0 -57 -40 -97t-93 -40q-55 0 -95 37t-40 90z" />
<glyph unicode="k" horiz-adv-x="991" d="M27 0q203 893 282 1264l-170 -7q-4 86 -4 121q68 8 151 22.5t135 25t56 10.5q12 0 37 -21.5t37 -42.5q-197 -821 -217 -901l12 -4q170 203 310.5 317.5t222.5 114.5q25 0 57.5 -52t36.5 -110q-106 -12 -196.5 -63t-192.5 -144v-12q104 -41 153 -219q43 -147 49 -160 q8 -16 27 -16q39 0 121 20q8 -74 8 -114q-129 -43 -326 -43q-35 57 -75 231q-49 190 -101 191q-14 0 -39 -21q-51 -47 -98 -100q-2 -8 -67 -285q-70 -2 -209 -2z" />
<glyph unicode="l" horiz-adv-x="550" d="M45 53q96 430 264 1213l-188 -6q-4 86 -4 120q92 8 177 22.5t131 24t52 9.5q10 0 36 -21.5t36 -40.5q-31 -125 -89.5 -386t-117.5 -531.5t-72 -323.5q-4 -14 9 -14q53 0 165 26q10 -55 15 -120q-160 -43 -334 -43q-8 0 -37 24t-43 47z" />
<glyph unicode="m" horiz-adv-x="1576" d="M57 0q80 346 162 731l-158 -12q-4 41 -4 121q68 10 139.5 24.5t111.5 23.5t46 9q12 0 33 -17.5t35 -37.5q-6 -43 -39 -193l20 -4q104 129 205 189.5t168 62.5q37 -4 76 -31.5t59 -64.5q14 -23 15 -58q0 -14 -13 -96l15 -4q102 131 198.5 189.5t165.5 60.5q37 -4 81 -36 t67 -79q14 -33 14 -63q0 -133 -139 -582q-4 -14 8 -14q35 0 131 26q12 -74 14 -114q-143 -49 -309 -49q-8 0 -31.5 24.5t-31.5 46.5q49 164 100 373q43 180 43 229q0 57 -55 58q-74 0 -185.5 -127t-134.5 -224q-31 -115 -88 -360q-66 -2 -201 -2q49 199 105 438 q39 182 39 226q0 23 -13.5 38t-35.5 15q-78 0 -189.5 -129t-136.5 -228q-43 -174 -84 -358q-68 -2 -203 -2z" />
<glyph unicode="n" horiz-adv-x="1097" d="M59 0q96 420 164 729l-155 -12q-2 43 -2 123q61 10 133.5 24.5t117.5 24.5t52 10q10 0 35.5 -19.5t35.5 -37.5q-20 -94 -45 -199l19 -6q109 131 219 195.5t186 66.5q96 -14 148 -113q14 -29 14 -69q0 -141 -150 -584q-4 -14 9 -14q37 0 135 24q8 -53 12 -116 q-141 -45 -313 -45q-12 0 -37 22.5t-35 48.5q76 248 115 391q41 170 41 205q0 59 -51 60q-84 0 -203 -121t-146 -219q-37 -139 -90 -367q-70 -2 -209 -2z" />
<glyph unicode="o" horiz-adv-x="966" d="M45 276q0 154 57.5 285t151.5 215q137 123 321 123q152 0 232 -98q74 -82 74 -226v-2q0 -139 -59.5 -268t-159.5 -221q-121 -104 -310 -104q-160 0 -246 104q-61 73 -61 192zM274 283q0 -88 25 -136q33 -53 96 -53h2q86 0 144 82q45 59 78.5 188.5t33.5 245.5 q0 80 -24 123q-29 51 -90 51q-84 0 -148 -84q-43 -55 -80 -175.5t-37 -241.5z" />
<glyph unicode="p" horiz-adv-x="1036" d="M-27 -494q186 1006 226 1223l-160 -2v123q90 12 160.5 24.5t99.5 18.5t33 6q12 0 37.5 -19.5t38.5 -39.5q-6 -33 -23.5 -116t-22.5 -108l21 -4q231 285 410 289q41 -4 88 -43t71 -90q18 -37 19 -78q0 -205 -97 -401q-51 -119 -148 -214t-232 -95q-117 0 -211 67 q-98 -508 -105 -536q-66 -5 -205 -5zM307 186q68 -74 156 -73q123 0 203 166q82 178 82 354v2q0 84 -60 84q-78 0 -200.5 -129t-143.5 -215q-17 -66 -37 -189z" />
<glyph unicode="q" horiz-adv-x="1003" d="M33 184q0 141 63 308q57 156 167 280.5t253 124.5q127 0 217 -84h10l45 100q86 -18 164 -45q-139 -543 -268 -1204q-4 -14 10 -14q37 0 142 26q12 -78 14 -116q-158 -51 -313 -52q-12 0 -39 25t-39 47q96 414 153 643l-12 6q-233 -250 -383 -256q-37 6 -82 34t-76 73 q-26 38 -26 104zM254 217q0 -33 15.5 -54.5t39.5 -21.5q66 0 185.5 116t144.5 192q27 80 55 233q-57 72 -147 72q-129 0 -223 -232q-70 -176 -70 -303v-2z" />
<glyph unicode="r" horiz-adv-x="806" d="M63 0q121 549 158 733l-153 -12q-4 82 -5 121q70 10 143 23.5t112.5 22.5t43.5 9q10 0 36 -21.5t34 -37.5q-18 -92 -53 -240l18 -6q203 305 314 305q61 0 112 -31q0 -53 -29.5 -130t-50.5 -91q-59 23 -100 23q-63 0 -166.5 -123t-134.5 -238q-6 -25 -32.5 -141.5 t-39.5 -163.5q-68 -2 -207 -2z" />
<glyph unicode="s" horiz-adv-x="796" d="M18 16q2 49 7.5 140.5t7.5 130.5q57 6 119 6l16 -137q0 -16 12 -25q43 -27 119 -27q78 0 117 25q51 35 51 100q0 49 -33 77t-110 59q-113 47 -170.5 98t-57.5 145q0 82 53.5 146.5t120.5 95.5q100 47 250 47q139 0 215 -43q-4 -45 -11 -130t-9 -118q-27 -4 -119 -8 l-12 125q-4 18 -13 25q-41 25 -98 24q-70 0 -106 -22q-61 -35 -62 -101q0 -33 22.5 -56.5t46 -34.5t81.5 -34q111 -47 165 -101t54 -138q0 -162 -152 -250q-96 -55 -272 -55q-150 -1 -232 36z" />
<glyph unicode="t" horiz-adv-x="761" d="M55 733q20 102 27 127q25 2 78 5t76 3q14 4 16 17q27 98 49 186q117 49 205 49q6 0 6 -8q0 -4 -21.5 -102.5t-31.5 -139.5q205 0 301 2q-10 -78 -29 -141q-39 0 -143.5 1t-157.5 1q-4 -25 -22.5 -102.5t-24.5 -112.5q-55 -264 -55 -309v-2q0 -72 86 -72t231 33 q4 -39 4 -121q-203 -66 -360 -65q-45 0 -99.5 36.5t-76.5 94.5q-6 25 -7 45q0 49 58 323q37 162 55 252h-164z" />
<glyph unicode="u" horiz-adv-x="1052" d="M55 836q55 10 134 25.5t129.5 25.5t56.5 10q14 0 39.5 -25.5t34.5 -46.5q-51 -160 -105 -376q-43 -190 -43 -234q0 -63 51 -63q68 0 182.5 125.5t137.5 209.5q37 154 84 387q72 2 211 3q-6 -29 -40 -191t-67 -317.5t-47 -229.5q-4 -14 10 -14q41 0 133 29q8 -39 21 -117 q-141 -55 -295 -55q-10 0 -31.5 20.5t-32.5 38.5q6 49 31 186l-16 4q-227 -252 -371 -258q-92 20 -149 101q-27 35 -27 92q0 143 123 561l-146 -12q-4 43 -8 121z" />
<glyph unicode="v" horiz-adv-x="966" d="M33 840q287 57 301 57q10 0 42 -25.5t44 -50.5q-53 -637 -55 -696q0 -20 18 -6q80 76 158 192q68 100 125 223t57 191q0 18 -16 14l-103 -6q-4 39 -8 121q236 41 256 41q12 0 46 -36t34 -46q0 -102 -83 -264t-171 -277q-66 -88 -135.5 -158.5t-109.5 -100t-48 -29.5 q-139 0 -221 18q-2 54 -2 117q0 239 31 612l-150 -14q-8 90 -10 123z" />
<glyph unicode="w" horiz-adv-x="1449" d="M20 838q279 59 287 59q12 0 42 -25.5t42 -50.5q-29 -500 -33 -676q0 -6 6.5 -8t10.5 6q66 80 139 211q141 250 191 467q63 25 192 25q-1 -137 -1 -254q0 -291 7 -455q0 -8 7.5 -10t9.5 4q76 90 145 213q53 96 98 211t45 172q0 16 -16 16l-102 -6q-4 82 -5 123 q233 35 242 35q14 -2 48 -34t36 -46q0 -94 -75.5 -256t-157.5 -280q-51 -74 -110.5 -146t-99.5 -110.5t-50 -38.5q-115 0 -193 16q-7 135 -7 283q0 98 3 202h-14q-61 -135 -140.5 -259t-131.5 -183t-64 -59q-115 0 -205 18q-5 134 -5 270q0 227 13 459l-143 -14 q-9 82 -11 121z" />
<glyph unicode="x" horiz-adv-x="940" d="M-53 -25q35 170 383 488l2 14q-2 6 -99 254l-155 -37q-6 20 -15.5 59.5t-13.5 57.5q41 12 110.5 35.5t113.5 38t53 14.5q37 0 88 -37q16 -49 86 -276h12q88 119 184.5 217t143.5 98q25 0 66.5 -51t49.5 -98q-205 -94 -399 -281l-2 -12q104 -262 129 -322q8 -14 25 -14 q49 0 122 18q14 -59 17 -116q-137 -41 -328 -41q-43 109 -133 360h-10q-158 -193 -199 -362q-64 -7 -155 -8q-36 0 -76 1z" />
<glyph unicode="y" horiz-adv-x="931" d="M-100 -369q102 43 204 115q123 86 185 178q-51 276 -129 801l-148 -23q-6 41 -14 119q59 14 133 33.5t114 31t46 11.5q12 0 38.5 -19.5t43.5 -41.5q27 -262 82 -723h14q82 147 119 235q106 260 106 379q0 18 -16 18l-105 -8q-6 61 -6 121q236 37 252 37q14 0 47 -34 t33 -48q0 -94 -66.5 -262t-140.5 -299q-166 -305 -413 -574q-72 -76 -146 -134t-92 -58q-31 0 -84 51t-57 94z" />
<glyph unicode="z" horiz-adv-x="897" d="M-25 113q57 57 274.5 282.5t336.5 343.5l-2 11q-207 0 -265 -2q-45 0 -57 -31l-65 -166q-66 10 -123 22q25 102 78 308q2 0 73.5 -2t136.5 -2h437q27 -106 35 -160q-86 -94 -290 -293t-306 -289l2 -10q180 0 303 6q53 4 71 41l72 164q80 -16 123 -29q-29 -113 -92 -309 q-10 0 -115.5 1t-191.5 1h-230h-162q-29 70 -43 113z" />
<glyph unicode="{" horiz-adv-x="739" d="M92 520q2 43 14 109q141 0 181 57q20 27 26 78t6 178q0 139 27 223t92 150q135 139 398 139q-8 -63 -21 -111q-172 0 -240 -90q-37 -53 -50 -131t-13 -243q0 -242 -201 -295l-2 -15q117 -27 117 -155q0 -57 -63.5 -229.5t-61.5 -235.5q0 -172 221 -172q-8 -59 -18 -107 q-182 0 -286.5 74t-104.5 199q0 88 69.5 258t69.5 223q0 49 -34 73.5t-126 22.5z" />
<glyph unicode="|" d="M471 -512v2048h143v-2048h-143z" />
<glyph unicode="}" horiz-adv-x="739" d="M-84 -330q0 6 18 113q170 0 242 94q37 51 49.5 126t12.5 243q0 135 47 209.5t151 103.5l2 14q-119 35 -119 158q0 55 59.5 220t59.5 239q0 158 -215 158q6 57 19 106q186 0 285.5 -71.5t99.5 -200.5q0 -88 -65.5 -257t-65.5 -212q0 -47 33.5 -72t127.5 -23 q-8 -66 -18 -108q-129 6 -178 -55q-23 -29 -28 -88.5t-5 -206.5q0 -223 -106 -340q-140 -150 -406 -150z" />
<glyph unicode="~" d="M104 354q8 127 76 213t164 86h2q84 0 209 -71q8 -4 40 -21.5t46 -25t39 -14.5t45 -7q43 0 72.5 37t31.5 104q45 4 125 0q-4 -127 -68.5 -215t-164.5 -88q-20 0 -41 4t-35 7.5t-37.5 14.5t-31 14t-34 17.5t-28.5 16.5q-10 6 -39 21.5t-44 23.5t-39.5 15.5t-47.5 7.5 q-45 0 -76.5 -38t-40.5 -102q-41 -4 -123 0z" />
<glyph unicode="&#xa1;" horiz-adv-x="559" d="M-16 -455q29 127 113.5 486.5t107.5 460.5q66 14 147 14q-4 -39 -21.5 -212t-23.5 -224q-20 -207 -41 -496q-41 -10 -142 -21.5t-138 -11.5h-2v4zM195 768q0 55 40.5 92t90.5 37q61 0 95 -31.5t34 -81.5q0 -59 -41 -99t-97 -40h-2q-59 0 -89.5 36t-30.5 87z" />
<glyph unicode="&#xa2;" d="M143 547v2q0 182 143.5 352t360.5 205q12 70 33 205q37 6 131 16q-12 -66 -37 -213q8 2 33 2q115 0 199 -49q-4 -43 -36 -95t-59 -65q-84 59 -166 62q-16 -98 -53 -304t-53 -305q106 6 238 66q14 -49 22 -111q-145 -76 -281 -90q-6 -37 -38 -225l-123 -12q31 170 39 229 q-141 2 -247 86t-106 244zM367 571q0 -74 38.5 -134t114.5 -77q18 113 55 330t48 277q-106 -18 -181 -139t-75 -255v-2z" />
<glyph unicode="&#xa3;" d="M-45 0q4 23 12 70t13 63l129 6q20 0 30 11q106 98 140 294q6 43 10 129h-207l12 62q8 41 12 59q29 0 88.5 1t88.5 1q10 0 10 11q10 190 22 251q35 160 160 267q137 115 352 114q113 0 195 -34q-10 -172 -25 -322q-66 -8 -145 -12l-8 188q-2 16 -15 25q-27 16 -79 16 q-82 0 -136 -53q-57 -57 -79 -193q-8 -47 -17 -254q55 2 169 3.5t169 1.5q-14 -88 -27 -132h-319q-2 -35 -12 -84q-37 -207 -183 -331q-29 -23 9 -23q365 0 426 15q25 6 45 45l88 198q78 -14 133 -31q-61 -201 -119 -364q-25 0 -259.5 1t-397.5 1h-285z" />
<glyph unicode="&#xa4;" d="M88 188q18 20 71.5 82t84.5 95q-100 94 -101 258q0 162 109 270q-8 8 -150 170q66 66 99 92q25 -29 75 -89t76 -91q84 57 213 57h2q117 0 193 -47q27 33 74 90.5t69 83.5q41 -31 96 -90q-23 -27 -72.5 -85t-66.5 -77q92 -102 92 -250q0 -180 -112 -282q125 -143 159 -185 q-39 -39 -96 -81q-25 31 -162 186q-82 -51 -204 -51q-115 0 -193 43q-25 -27 -80 -89.5t-82 -93.5q-51 41 -94 84zM301 635q0 -141 82 -213q59 -55 162 -55q98 0 157 51q92 74 93 229q0 143 -90 215q-55 47 -152 47h-2q-102 0 -158 -55q-92 -84 -92 -219z" />
<glyph unicode="&#xa5;" d="M88 289q14 80 21 102h292l21 127h-299q0 6 18 100h265q-72 182 -207 543q-4 12 -17 13l-88 4q10 61 23 125q29 0 95.5 -1.5t98.5 -1.5q55 0 153.5 1.5t139.5 1.5q-10 -57 -22 -125l-150 -7q66 -229 154 -507h10q141 219 303 495q8 12 -6 12l-139 5q4 20 11 62t11 62h264 q29 0 82.5 1.5t73.5 1.5q-8 -49 -22 -125l-87 -7q-199 -285 -389 -548q45 0 127 1t119 1q-8 -72 -20 -107h-299l-21 -125h301q-6 -47 -20 -100q-82 -2 -299 -2l-27 -158l180 -6q-2 -16 -24 -127q-35 0 -129 1t-144 1q-43 0 -136 -1t-134 -1q8 49 23 125l149 6q6 0 18 12 l23 148q-45 0 -149.5 -1t-147.5 -1z" />
<glyph unicode="&#xa6;" d="M471 358h143v-716h-143v716zM471 666v716h143v-716h-143z" />
<glyph unicode="&#xa7;" horiz-adv-x="940" d="M-68 -266q16 37 50 72.5t73 46.5q43 -45 108.5 -77t127.5 -32q86 0 143 51q61 55 62 156q0 68 -39 115t-150 127q-106 78 -157.5 149.5t-51.5 171.5q0 186 189 320q-45 63 -45 153q0 74 38.5 147.5t110.5 127.5q109 82 273 81q193 0 288 -102q-12 -35 -46 -68.5 t-70 -48.5q-100 88 -205 88q-76 0 -129 -43q-66 -55 -66 -137q0 -14 2 -28.5t4 -24.5t10.5 -23.5t12.5 -20.5t18.5 -21.5t21.5 -20.5t26.5 -22.5t28.5 -23.5t36 -26.5t39 -29.5q98 -72 147 -146t49 -174v-2q0 -193 -182 -322q39 -63 39 -141q0 -193 -149 -303 q-115 -90 -271 -90q-98 0 -190.5 32t-145.5 89zM272 578q0 -47 25 -89.5t45 -60.5t76 -63q102 -78 157 -136q80 68 80 179q0 45 -22.5 84.5t-48 65.5t-74.5 67q-133 115 -148 127q-90 -68 -90 -172v-2z" />
<glyph unicode="&#xa8;" horiz-adv-x="1001" d="M309 1120q0 41 31 75t80 34h2q45 0 68.5 -26.5t23.5 -61.5q0 -47 -29.5 -80t-78.5 -33q-41 0 -69 25.5t-28 66.5zM657 1118q0 43 29 77t80 34h2q41 0 66.5 -27.5t25.5 -64.5q0 -43 -30.5 -76t-75.5 -33t-71 26.5t-26 63.5z" />
<glyph unicode="&#xa9;" horiz-adv-x="1542" d="M109 659q0 287 198.5 489t485.5 202h2q289 0 479 -193.5t190 -482.5t-199.5 -491.5t-486.5 -202.5q-289 0 -479 194t-190 485zM223 662q0 -252 158 -423t403 -171q244 0 405 176t161 426t-159 421t-405 171h-2q-242 0 -401.5 -175t-159.5 -425zM436 612q0 211 158 342 q115 88 278 88q106 0 156 -22q12 -141 14 -232q-33 -6 -102 -14l-22 129q0 10 -9 19q-27 16 -73 16q-80 0 -131 -51q-94 -92 -95 -244q0 -115 66 -186q61 -59 166 -60q100 0 190 43q10 -45 19 -96q-125 -59 -244 -59q-147 0 -242 69q-57 41 -93 109.5t-36 148.5z" />
<glyph unicode="&#xaa;" horiz-adv-x="808" d="M111 788q0 111 45 230q45 123 130 214t191 91q92 0 156 -63h6l35 67q66 -14 133 -37q-66 -248 -127 -534q-4 -10 8 -11q14 0 92 17q8 -45 13 -96q-106 -35 -222 -35q-8 0 -24.5 13t-24.5 28q2 37 25 131l-12 4q-78 -84 -154 -130t-123 -46q-27 0 -74 31.5t-65 64.5 q-8 28 -8 61zM291 827q0 -55 39 -55q43 0 125 74t102 125q33 123 43 182q-35 53 -100 53h-2q-86 0 -152 -153q-55 -128 -55 -226z" />
<glyph unicode="&#xab;" horiz-adv-x="911" d="M78 397q10 84 14 105q72 61 195 173.5t149 135.5q37 -35 74 -78q-115 -131 -246 -293q68 -133 160 -293q-33 -29 -92 -69q-139 184 -254 319zM438 399q12 90 15 103q178 158 327 297q29 -27 72 -78q-117 -139 -234 -283q20 -39 154 -280q-41 -35 -90 -68 q-92 119 -244 309z" />
<glyph unicode="&#xac;" d="M111 436q0 51 4 142q61 0 841 6q8 0 9 -9q0 -82 -2 -268t-2 -252q-68 -6 -142 -6v387h-708z" />
<glyph unicode="&#xad;" horiz-adv-x="663" d="M66 434q10 68 22 135q80 2 236 2q45 0 134 1t132 3q-6 -47 -25 -141h-258h-2h-239z" />
<glyph unicode="&#xae;" horiz-adv-x="962" d="M139 946q0 168 117 286t287 118h2q172 0 283.5 -113t111.5 -283q0 -168 -117.5 -285.5t-285.5 -117.5q-172 0 -285 111.5t-113 283.5zM219 948q0 -143 89 -236.5t231 -93.5q139 0 229 96.5t90 238t-89 235.5t-228 94h-2q-139 0 -229.5 -96.5t-90.5 -237.5zM348 739v60 l41 2v301h-41v61q53 2 158 2q80 0 123 -10q43 -12 66.5 -40t23.5 -60q0 -82 -88 -113v-10q31 -14 76 -109q12 -23 26 -22l31 -2v-60h-131q-12 16 -39 75.5t-29 66.5q-14 20 -47 20h-20v-100l45 -2q0 -8 -1 -28.5t-1 -31.5h-193zM498 963h20q90 0 90 73q0 68 -88 68h-22v-141 z" />
<glyph unicode="&#xaf;" horiz-adv-x="1001" d="M346 1055q18 100 21 112q299 4 444 4q-6 -55 -23 -118q-61 0 -213.5 1t-228.5 1z" />
<glyph unicode="&#xb0;" horiz-adv-x="704" d="M160 1089.5q0 102.5 75.5 176t192.5 73.5q109 0 173.5 -62.5t64.5 -158.5q0 -106 -74 -179t-193 -73h-2q-96 0 -166.5 60.5t-70.5 163zM303 1092q0 -57 29.5 -90t75.5 -33h2q51 0 81.5 36.5t30.5 104.5q0 59 -26.5 93t-77.5 34t-83 -41t-32 -104z" />
<glyph unicode="&#xb1;" d="M104 -2q0 98 5 141q250 2 849 2q0 -72 -6 -139q-348 0 -848 -4zM106 551q0 53 5 139q51 2 170.5 3t179.5 1v310q94 8 147 8q0 -70 -4 -316q61 0 182 1t175 3q0 -78 -7 -149h-350q0 -55 -1 -152.5t-1 -132.5q-129 -6 -141 -6v291h-355z" />
<glyph unicode="&#xb2;" horiz-adv-x="714" d="M119 928q125 80 198 137q203 160 203 276q0 49 -22 74q-23 29 -72 29t-80 -21l-6 -12l-35 -113q-74 8 -108 13q25 135 36 198q98 37 213 37q145 0 203 -63q47 -49 47 -133v-2q0 -143 -237 -314q-14 -10 -101 -63l4 -8q33 0 144.5 6t144.5 6q4 0 4 -4q-2 -55 -20 -119 h-342h-154q-10 29 -20 76z" />
<glyph unicode="&#xb3;" horiz-adv-x="714" d="M135 1040q33 6 113 15l20 -103q4 -8 8 -10q25 -12 72 -12q72 0 109 28q37 33 37 86q0 51 -42 80t-108 29h-72q12 92 13 96q109 -4 176 28t67 95q0 33 -22.5 55.5t-75.5 22.5q-51 0 -82 -18q-4 -2 -8 -11l-29 -90q-80 4 -108 8q18 109 33 172q96 35 223 35q135 0 192 -51 q49 -45 49 -106q0 -59 -48 -105.5t-134 -60.5l-2 -13q74 -10 114 -54t40 -103q0 -102 -90 -160q-80 -57 -265 -57q-113 0 -172 14q0 31 -4 95t-4 95z" />
<glyph unicode="&#xb4;" horiz-adv-x="1001" d="M430 1065q41 35 318 278q57 -59 94 -120q-88 -61 -344 -238q-37 39 -68 80z" />
<glyph unicode="&#xb5;" horiz-adv-x="1081" d="M-41 -512q63 381 133 758q59 322 137 626q119 4 213 5q-66 -274 -98 -431q-35 -147 -35 -206q0 -35 17.5 -55.5t46.5 -20.5q70 0 182.5 119.5t134.5 216.5q8 29 42 179t44 193q139 4 209 5q-131 -631 -151 -736q-4 -16 10 -16q39 0 129 29q14 -51 20 -117 q-135 -55 -295 -55q-10 0 -32.5 19t-34.5 40q2 25 31 176l-15 6q-90 -104 -180 -173.5t-143 -69.5q-57 0 -82 47l-13 -4q-39 -336 -51 -510q-84 -25 -219 -25z" />
<glyph unicode="&#x3bc;" horiz-adv-x="1081" d="M-41 -512q63 381 133 758q59 322 137 626q119 4 213 5q-66 -274 -98 -431q-35 -147 -35 -206q0 -35 17.5 -55.5t46.5 -20.5q70 0 182.5 119.5t134.5 216.5q8 29 42 179t44 193q139 4 209 5q-131 -631 -151 -736q-4 -16 10 -16q39 0 129 29q14 -51 20 -117 q-135 -55 -295 -55q-10 0 -32.5 19t-34.5 40q2 25 31 176l-15 6q-90 -104 -180 -173.5t-143 -69.5q-57 0 -82 47l-13 -4q-39 -336 -51 -510q-84 -25 -219 -25z" />
<glyph unicode="&#xb6;" horiz-adv-x="1140" d="M94 815q0 158 85 275.5t210 175.5q150 66 471 65q39 0 328 -6q-20 -127 -21 -129h-118l-246 -1475q-72 -14 -135 -20l239 1499h-135l-248 -1493q-37 -8 -137 -22l117 731h-37q-102 6 -176 47q-197 100 -197 352z" />
<glyph unicode="&#xb7;" horiz-adv-x="540" d="M135 530q0 53 39 95.5t98 42.5h2q66 0 97.5 -39t31.5 -88q0 -59 -39.5 -98.5t-99.5 -39.5q-57 0 -93 36t-36 91z" />
<glyph unicode="&#xb8;" horiz-adv-x="1001" d="M143 -461l4 88q164 8 164 99q0 35 -28.5 56t-79.5 21q-2 8 -6 27.5t-7 28.5l193 172h133l-174 -158q53 -8 85 -46t32 -85q0 -86 -86.5 -143.5t-229.5 -59.5z" />
<glyph unicode="&#xb9;" horiz-adv-x="714" d="M150 852l18 92l164 4q4 0 4 4q8 47 24.5 137.5t28.5 161t21 125.5q-80 -8 -179 -26q-6 92 -6 94q61 12 152.5 39.5t154 48t72.5 20.5q6 0 2 -6q-70 -391 -108 -598l174 -2q-4 -16 -10.5 -47t-8.5 -47h-256h-247z" />
<glyph unicode="&#xba;" horiz-adv-x="774" d="M125 872q0 100 39 196.5t108 160.5q100 94 252 94q123 0 183 -70q59 -63 59 -174v-2q0 -236 -152 -366q-96 -82 -237 -82q-135 0 -203 80q-49 57 -49 163zM309 860q0 -72 19 -102q20 -39 67 -39h2q61 0 105 59q31 45 56.5 141.5t25.5 186.5q0 61 -19 90q-18 35 -63 35 q-59 0 -105 -60q-35 -43 -61.5 -132t-26.5 -179z" />
<glyph unicode="&#xbb;" horiz-adv-x="911" d="M16 164q131 154 234 282q-53 109 -152 281q39 37 88 68q43 -53 123 -153.5t123 -154.5q-12 -90 -14 -102q-135 -121 -330 -297q-52 51 -72 76zM358 154q123 137 246 292q-20 41 -160 293q39 35 93 68q215 -270 254 -318q-10 -86 -15 -106q-41 -37 -344 -307 q-29 29 -74 78z" />
<glyph unicode="&#xbc;" horiz-adv-x="1716" d="M180 639l19 92l163 4q4 0 5 4q8 47 24.5 137.5t28.5 161t20 125.5q-80 -8 -178 -26q-6 92 -6 94q61 12 152.5 39.5t154 48t72.5 20.5q4 0 2 -6q-70 -391 -109 -598l174 -2q-6 -49 -18 -94h-256h-248zM373 29q47 61 137 182t166 222.5t139 187.5q92 127 276.5 379.5 t256.5 351.5q53 -27 98 -66q-336 -453 -531 -721q-430 -571 -448 -596q-55 29 -94 60zM932 268q29 31 96.5 100.5t104.5 108.5q72 76 206 211q61 0 164 -4q-33 -197 -71 -420h127q-4 -29 -17 -94h-127q-12 -78 -14 -88l90 -2q-4 -47 -12 -80h-174h-172q10 61 14 78l108 4 q4 0 5 4q2 14 7 42t7 38h-307q-19 45 -35 102zM1071 276q-12 -12 2 -12q18 0 103.5 -1t111.5 -1l51 287h-14q-29 -31 -80 -84t-55 -57q-18 -23 -59.5 -66t-59.5 -66z" />
<glyph unicode="&#xbd;" horiz-adv-x="1716" d="M133 639q6 41 17 92l163 4q4 0 6 4q25 141 72 424q-70 -8 -178 -26q0 10 -2 43.5t-4 50.5q63 12 153.5 39.5t154 48t73.5 20.5q2 0 0 -6q-16 -100 -54 -310t-53 -288l172 -2q-6 -49 -18 -94h-256h-246zM324 29q90 119 442 592q92 127 276.5 379.5t255.5 351.5 q57 -29 101 -66q-465 -627 -533 -719q-227 -305 -448 -598q-43 23 -94 60zM1001 76q125 80 199 137q203 160 203 276q0 49 -23 74q-23 29 -71.5 29t-79.5 -21l-6 -12l-35 -113q-74 8 -109 13q25 135 37 198q98 37 213 37q145 0 203 -63q47 -49 47 -133v-2q0 -143 -238 -314 q-14 -10 -100 -63l4 -8q33 0 144.5 6t144.5 6q4 0 4 -4q-2 -55 -20 -119h-342h-154q-11 29 -21 76z" />
<glyph unicode="&#xbe;" horiz-adv-x="1716" d="M193 829q33 6 112 15l21 -103q4 -8 8 -10q25 -12 72 -12q72 0 108 29q37 33 37 86q0 51 -42 79.5t-108 28.5h-71q12 92 12 96q109 -4 176.5 28t67.5 93q0 37 -23 55q-23 25 -76 25q-51 0 -81 -18q-4 -2 -9 -11l-28 -92q-16 2 -54.5 5t-54.5 5q18 109 33 172q96 35 223 35 q135 0 193 -51q49 -45 49 -106q0 -59 -48 -105.5t-135 -60.5l-2 -13q74 -10 114 -54t40 -103q0 -102 -90 -160q-80 -57 -264 -57q-106 0 -172 12q0 31 -3 95t-5 97zM387 29q205 270 444 592q92 127 276.5 379.5t256.5 351.5q53 -27 98 -66q-184 -246 -530 -719 q-227 -305 -449 -598q-51 27 -96 60zM942 268q29 31 96.5 100.5t104.5 108.5q72 76 207 211q113 0 163 -4q-33 -197 -71 -420h127q-4 -29 -17 -94h-127q-12 -78 -14 -88l90 -2q-4 -47 -12 -80h-174h-172q10 61 14 78l109 4q4 0 4 4q2 14 7 42t7 38h-307q-19 45 -35 102z M1081 276q-12 -12 4 -12q18 0 102.5 -1t110.5 -1l52 287h-15q-23 -25 -67.5 -72t-65.5 -69q-45 -48 -121 -132z" />
<glyph unicode="&#xbf;" horiz-adv-x="915" d="M-20 -190q0 135 90 246.5t305 224.5q47 29 53 67q4 59 0 139q70 27 158 33q41 -86 41 -198q0 -18 -4 -52q-205 -127 -295 -217t-90 -211q0 -74 40.5 -117.5t116.5 -43.5q78 0 125 30q12 8 19 23l63 174q86 -6 150 -19q-41 -188 -68 -295q-150 -61 -348 -61h-2 q-174 0 -263 78t-91 199zM438 776q0 51 42 86t102 35q53 0 85.5 -30.5t32.5 -78.5q0 -55 -44 -96t-101 -41h-2q-57 0 -86 35t-29 90z" />
<glyph unicode="&#xc0;" horiz-adv-x="1253" d="M-106 0q6 43 22 129l104 6q8 0 17 12q106 190 339.5 621.5t311.5 574.5q53 4 178 5q35 -195 110 -626t103 -587l117 -6q-8 -51 -22 -129q-31 0 -105 1t-111 1q-49 0 -147 -1t-139 -1q4 20 11 63t11 66l142 6q12 0 8 12q-25 160 -37 222q0 10 -12 10l-453 -4 q-12 -25 -117 -240l154 -6q-14 -92 -23 -129q-37 0 -131 1t-147 1q-31 0 -93 -1t-91 -1zM410 518q-4 -10 4 -10l374 -2q-66 418 -86 557h-14q-37 -70 -134 -260.5t-144 -284.5zM504 1624q33 61 84 139q57 -37 182 -120.5t178 -118.5q-23 -47 -55 -88q-59 29 -194.5 94 t-194.5 94z" />
<glyph unicode="&#xc1;" horiz-adv-x="1253" d="M-106 0q6 43 22 129l104 6q8 0 17 12q106 190 339.5 621.5t311.5 574.5q53 4 178 5q35 -195 110 -626t103 -587l117 -6q-8 -51 -22 -129q-31 0 -105 1t-111 1q-49 0 -147 -1t-139 -1q4 20 11 63t11 66l142 6q12 0 8 12q-25 160 -37 222q0 10 -12 10l-453 -4 q-12 -25 -117 -240l154 -6q-14 -92 -23 -129q-37 0 -131 1t-147 1q-31 0 -93 -1t-91 -1zM410 518q-4 -10 4 -10l374 -2q-66 418 -86 557h-14q-37 -70 -134 -260.5t-144 -284.5zM590 1524q158 106 360 237q49 -72 80 -141q-59 -29 -194.5 -93.5t-194.5 -92.5q-33 53 -51 90z " />
<glyph unicode="&#xc2;" horiz-adv-x="1253" d="M-106 0q6 43 22 129l104 6q8 0 17 12q106 190 339.5 621.5t311.5 574.5q53 4 178 5q35 -195 110 -626t103 -587l117 -6q-8 -51 -22 -129q-31 0 -105 1t-111 1q-49 0 -147 -1t-139 -1q4 20 11 63t11 66l142 6q12 0 8 12q-25 160 -37 222q0 10 -12 10l-453 -4 q-12 -25 -117 -240l154 -6q-14 -92 -23 -129q-37 0 -131 1t-147 1q-31 0 -93 -1t-91 -1zM410 518q-4 -10 4 -10l374 -2q-66 418 -86 557h-14q-37 -70 -134 -260.5t-144 -284.5zM481 1524q27 20 291 213q27 2 84 2q35 -35 108.5 -110t106.5 -107q-29 -35 -72 -74 q-59 45 -198 149q-113 -68 -262 -153q-40 47 -58 80z" />
<glyph unicode="&#xc3;" horiz-adv-x="1253" d="M-106 0q6 43 22 129l104 6q8 0 17 12q106 190 339.5 621.5t311.5 574.5q53 4 178 5q35 -195 110 -626t103 -587l117 -6q-8 -51 -22 -129q-31 0 -105 1t-111 1q-49 0 -147 -1t-139 -1q4 20 11 63t11 66l142 6q12 0 8 12q-25 160 -37 222q0 10 -12 10l-453 -4 q-12 -25 -117 -240l154 -6q-14 -92 -23 -129q-37 0 -131 1t-147 1q-31 0 -93 -1t-91 -1zM410 518q-4 -10 4 -10l374 -2q-66 418 -86 557h-14q-37 -70 -134 -260.5t-144 -284.5zM471 1464q10 86 72.5 152.5t132.5 66.5h2q53 0 143 -55q63 -41 103 -41q27 0 51 27.5t31 64.5 h94q-10 -90 -65.5 -156.5t-139.5 -66.5q-43 0 -125 51q-74 47 -117 47q-27 0 -53.5 -25.5t-34.5 -64.5h-94z" />
<glyph unicode="&#xc4;" horiz-adv-x="1253" d="M-106 0q6 43 22 129l104 6q8 0 17 12q106 190 339.5 621.5t311.5 574.5q53 4 178 5q35 -195 110 -626t103 -587l117 -6q-8 -51 -22 -129q-31 0 -105 1t-111 1q-49 0 -147 -1t-139 -1q4 20 11 63t11 66l142 6q12 0 8 12q-25 160 -37 222q0 10 -12 10l-453 -4 q-12 -25 -117 -240l154 -6q-14 -92 -23 -129q-37 0 -131 1t-147 1q-31 0 -93 -1t-91 -1zM410 518q-4 -10 4 -10l374 -2q-66 418 -86 557h-14q-37 -70 -134 -260.5t-144 -284.5zM496 1556q0 45 30.5 79t83.5 34h2q45 0 69 -27.5t24 -64.5q0 -45 -31 -78t-80 -33 q-41 0 -69.5 25.5t-28.5 64.5zM870 1559q0 45 31 77.5t80 32.5h2q45 0 69.5 -27.5t24.5 -64.5q0 -47 -30.5 -79t-75.5 -32q-47 0 -74 26t-27 67z" />
<glyph unicode="&#xc5;" horiz-adv-x="1253" d="M-106 0q6 43 22 129l104 6q8 0 17 12q106 190 339.5 621.5t311.5 574.5q53 4 178 5q35 -195 110 -626t103 -587l117 -6q-8 -51 -22 -129q-31 0 -105 1t-111 1q-49 0 -147 -1t-139 -1q4 20 11 63t11 66l142 6q12 0 8 12q-25 160 -37 222q0 10 -12 10l-453 -4 q-12 -25 -117 -240l154 -6q-14 -92 -23 -129q-37 0 -131 1t-147 1q-31 0 -93 -1t-91 -1zM410 518q-4 -10 4 -10l374 -2q-66 418 -86 557h-14q-37 -70 -134 -260.5t-144 -284.5zM567 1597q0 92 71 150.5t171 58.5q88 0 145.5 -48t57.5 -120q0 -84 -63.5 -146t-178.5 -62h-2 q-86 0 -143.5 44.5t-57.5 122.5zM690 1604q0 -39 26.5 -63.5t63.5 -24.5h2q43 0 75 30.5t32 83.5q0 37 -24.5 63.5t-61.5 26.5q-49 0 -81 -30.5t-32 -85.5z" />
<glyph unicode="&#xc6;" horiz-adv-x="1753" d="M-111 0q4 25 23 129l102 6q12 0 21 12q106 145 405 561t443 611q6 10 14 10q45 0 123 -1t117 -1q61 0 232 1t187 1h175q-12 -111 -41 -336q-16 -2 -38 -3t-47.5 -2t-39.5 -1l-4 162q0 35 -39 37q-78 12 -308 12q-16 0 -16 -8l-92 -514q47 0 135 1t133 3q45 0 56 41l26 90 q43 2 125 -2q-6 -43 -37 -203q-4 -29 -14 -90t-17 -90q-20 -2 -63 -3t-64 -1l5 80q2 25 -8.5 34t-39.5 9q-80 2 -258 2l-65 -375q-4 -29 14.5 -36t93.5 -7q199 0 261 16q31 6 49 43l82 160q66 -12 125 -33q-88 -250 -113 -317q-31 0 -261.5 1t-387.5 1q-45 0 -132 -1 t-124 -1q16 86 24 127l129 6q8 0 15 10l63 381q2 4 -1 6t-9 2l-350 -2q-170 -250 -265 -395l150 -6q-12 -88 -23 -127h-286h-185zM594 659h289l90 533h-17q-172 -244 -362 -520q-8 -13 0 -13z" />
<glyph unicode="&#xc7;" horiz-adv-x="1177" d="M102 518q0 209 102.5 394.5t252.5 293.5q199 145 477 146q174 0 260 -43q-2 -29 -43 -385q-90 -4 -141 -4l2 219q0 20 -11 26q-51 33 -145 33q-158 0 -272 -102q-111 -98 -171.5 -246t-60.5 -301q0 -193 74 -289q39 -53 110.5 -87t157.5 -34q143 0 338 70q6 -76 4 -141 q-121 -43 -241 -68l-185 -152q127 -27 127 -139q0 -92 -98 -148.5t-240 -56.5l2 90q78 2 126 30t48 71q0 35 -20 55q-23 23 -90 29l-12 61l172 140h-15q-205 0 -354 135q-154 137 -154 403z" />
<glyph unicode="&#xc8;" horiz-adv-x="1122" d="M-4 -2q16 86 22 127l125 6q8 0 13 10l180 1055l-137 4l24 129q37 0 123 -1t125 -1q33 0 232.5 1t222.5 1h174q-12 -111 -41 -336q-23 -2 -67 -4t-58 -2l-2 164q0 33 -41 37q-109 10 -307 10q-18 0 -21 -8l-78 -449q45 0 134.5 1t132.5 3q31 0 41 9.5t16 29.5l27 93 q43 2 125 -3q-6 -43 -37 -202q-6 -37 -17.5 -105.5t-15.5 -93.5q-41 -2 -127 -2l6 92q2 27 -7 37t-40 10q-80 2 -260 2l-74 -440q-4 -27 16.5 -35t96.5 -8q195 0 256 16q31 6 49 43l86 172q57 -12 125 -32q-70 -205 -117 -330q-31 0 -261 1t-388 1q-45 0 -132 -1t-124 -1z M459 1624q33 61 84 139q57 -37 182 -120.5t178 -118.5q-23 -47 -55 -88q-59 29 -194.5 94t-194.5 94z" />
<glyph unicode="&#xc9;" horiz-adv-x="1122" d="M-4 -2q16 86 22 127l125 6q8 0 13 10l180 1055l-137 4l24 129q37 0 123 -1t125 -1q33 0 232.5 1t222.5 1h174q-12 -111 -41 -336q-23 -2 -67 -4t-58 -2l-2 164q0 33 -41 37q-109 10 -307 10q-18 0 -21 -8l-78 -449q45 0 134.5 1t132.5 3q31 0 41 9.5t16 29.5l27 93 q43 2 125 -3q-6 -43 -37 -202q-6 -37 -17.5 -105.5t-15.5 -93.5q-41 -2 -127 -2l6 92q2 27 -7 37t-40 10q-80 2 -260 2l-74 -440q-4 -27 16.5 -35t96.5 -8q195 0 256 16q31 6 49 43l86 172q57 -12 125 -32q-70 -205 -117 -330q-31 0 -261 1t-388 1q-45 0 -132 -1t-124 -1z M563 1524q158 106 361 237q49 -72 80 -141q-59 -29 -194.5 -93.5t-195.5 -92.5q-33 53 -51 90z" />
<glyph unicode="&#xca;" horiz-adv-x="1122" d="M-4 -2q16 86 22 127l125 6q8 0 13 10l180 1055l-137 4l24 129q37 0 123 -1t125 -1q33 0 232.5 1t222.5 1h174q-12 -111 -41 -336q-23 -2 -67 -4t-58 -2l-2 164q0 33 -41 37q-109 10 -307 10q-18 0 -21 -8l-78 -449q45 0 134.5 1t132.5 3q31 0 41 9.5t16 29.5l27 93 q43 2 125 -3q-6 -43 -37 -202q-6 -37 -17.5 -105.5t-15.5 -93.5q-41 -2 -127 -2l6 92q2 27 -7 37t-40 10q-80 2 -260 2l-74 -440q-4 -27 16.5 -35t96.5 -8q195 0 256 16q31 6 49 43l86 172q57 -12 125 -32q-70 -205 -117 -330q-31 0 -261 1t-388 1q-45 0 -132 -1t-124 -1z M414 1526q27 20 291 213q27 2 83 2q35 -35 109 -110t107 -107q-29 -35 -72 -74q-59 45 -199 149q-113 -68 -262 -153q-39 47 -57 80z" />
<glyph unicode="&#xcb;" horiz-adv-x="1122" d="M-4 -2q16 86 22 127l125 6q8 0 13 10l180 1055l-137 4l24 129q37 0 123 -1t125 -1q33 0 232.5 1t222.5 1h174q-12 -111 -41 -336q-23 -2 -67 -4t-58 -2l-2 164q0 33 -41 37q-109 10 -307 10q-18 0 -21 -8l-78 -449q45 0 134.5 1t132.5 3q31 0 41 9.5t16 29.5l27 93 q43 2 125 -3q-6 -43 -37 -202q-6 -37 -17.5 -105.5t-15.5 -93.5q-41 -2 -127 -2l6 92q2 27 -7 37t-40 10q-80 2 -260 2l-74 -440q-4 -27 16.5 -35t96.5 -8q195 0 256 16q31 6 49 43l86 172q57 -12 125 -32q-70 -205 -117 -330q-31 0 -261 1t-388 1q-45 0 -132 -1t-124 -1z M430 1559q0 45 31 78.5t84 33.5h2q45 0 68.5 -27.5t23.5 -64.5q0 -45 -30.5 -78t-80.5 -33q-41 0 -69.5 26t-28.5 65zM805 1561q0 45 30.5 77.5t79.5 32.5h3q45 0 69.5 -27.5t24.5 -64.5q0 -47 -31 -79t-76 -32q-47 0 -73.5 26t-26.5 67z" />
<glyph unicode="&#xcc;" horiz-adv-x="690" d="M-8 0l24 129l127 6q8 0 13 10l180 1049l-143 6q4 25 24 129q37 0 131 -1t139 -1t131.5 1t120.5 1q-8 -55 -26 -129l-142 -6q-6 0 -6 -8l-184 -1051l158 -6q-10 -70 -25 -129q-35 0 -126 1t-136 1q-41 0 -131 -1t-129 -1zM236 1624q33 61 83 139q57 -37 182.5 -120.5 t178.5 -118.5q-23 -47 -55 -88q-59 29 -194.5 94t-194.5 94z" />
<glyph unicode="&#xcd;" horiz-adv-x="690" d="M-8 0l24 129l127 6q8 0 13 10l180 1049l-143 6q4 25 24 129q37 0 131 -1t139 -1t131.5 1t120.5 1q-8 -55 -26 -129l-142 -6q-6 0 -6 -8l-184 -1051l158 -6q-10 -70 -25 -129q-35 0 -126 1t-136 1q-41 0 -131 -1t-129 -1zM326 1524q158 106 360 237q49 -72 80 -141 q-59 -29 -194.5 -93.5t-194.5 -92.5q-33 53 -51 90z" />
<glyph unicode="&#xce;" horiz-adv-x="690" d="M-8 0l24 129l127 6q8 0 13 10l180 1049l-143 6q4 25 24 129q37 0 131 -1t139 -1t131.5 1t120.5 1q-8 -55 -26 -129l-142 -6q-6 0 -6 -8l-184 -1051l158 -6q-10 -70 -25 -129q-35 0 -126 1t-136 1q-41 0 -131 -1t-129 -1zM195 1526q27 20 290 213q27 2 84 2 q35 -35 109 -110t106 -107q-29 -35 -71 -74q-59 45 -199 149q-113 -68 -262 -153q-39 47 -57 80z" />
<glyph unicode="&#xcf;" horiz-adv-x="690" d="M-8 0l24 129l127 6q8 0 13 10l180 1049l-143 6q4 25 24 129q37 0 131 -1t139 -1t131.5 1t120.5 1q-8 -55 -26 -129l-142 -6q-6 0 -6 -8l-184 -1051l158 -6q-10 -70 -25 -129q-35 0 -126 1t-136 1q-41 0 -131 -1t-129 -1zM215 1559q0 45 30.5 78.5t84.5 33.5h2 q45 0 68.5 -27.5t23.5 -64.5q0 -45 -31 -78t-80 -33q-41 0 -69.5 26t-28.5 65zM590 1561q0 45 30.5 77.5t79.5 32.5h2q45 0 70 -27.5t25 -64.5q0 -47 -31 -79t-76 -32q-47 0 -73.5 26t-26.5 67z" />
<glyph unicode="&#xd0;" horiz-adv-x="1378" d="M-2 -2q8 61 22 127l119 6q14 0 15 14l77 457h-178q14 90 21 117q29 0 88 1t90 1l84 473l-133 4q12 68 24 129q246 4 439 4q285 0 440 -110q203 -147 203 -445q0 -209 -99.5 -386t-251.5 -275q-176 -117 -466 -117q-41 0 -131.5 1t-114.5 1q-39 0 -124 -1t-124 -1z M387 195q-6 -41 17.5 -56.5t103.5 -15.5q213 0 342 108q90 76 149.5 212.5t59.5 320.5q0 211 -101 326q-104 117 -296 116q-61 0 -97 -8l-86 -475q182 0 293 2q-6 -61 -22 -123h-291z" />
<glyph unicode="&#xd1;" horiz-adv-x="1447" d="M-12 0l24 129l119 4q8 2 12 12l179 1053l-138 4q4 20 11.5 62.5t11.5 64.5h328q289 -590 501 -1038l13 2q12 72 63 401.5t78 503.5l-180 2q4 18 11 62.5t11 66.5h268q35 0 105 1t96 1q-4 -35 -22 -127l-113 -6q-6 0 -10 -12l-205 -1176q-53 -25 -166 -24 q-248 420 -520 1013h-14q-29 -170 -82.5 -481t-65.5 -383l180 -4q-8 -51 -22 -131q-43 0 -139.5 1t-143.5 1q-35 0 -99 -1t-91 -1zM575 1464q10 86 73 152.5t132 66.5h2q53 0 144 -55q63 -41 102 -41q27 0 51.5 27.5t30.5 64.5h94q-10 -90 -65.5 -156.5t-139.5 -66.5 q-43 0 -125 51q-74 47 -116 47q-27 0 -53.5 -25.5t-34.5 -64.5h-95z" />
<glyph unicode="&#xd2;" horiz-adv-x="1449" d="M106 514q0 231 104.5 421.5t248.5 291.5q178 123 415 123q209 0 340 -117q88 -76 129 -189.5t41 -226.5v-2q0 -213 -86 -394t-219 -290q-186 -152 -454 -151q-238 0 -383 151q-136 141 -136 383zM358 500q0 -178 78 -283q82 -106 233.5 -106t260.5 106q82 78 141 242 t59 360q0 188 -71 289q-76 111 -223 111q-154 0 -271 -115q-82 -80 -144.5 -242t-62.5 -360v-2zM635 1630q33 61 84 139q57 -37 182 -120.5t178 -118.5q-23 -47 -55 -88q-59 29 -194.5 94t-194.5 94z" />
<glyph unicode="&#xd3;" horiz-adv-x="1449" d="M106 514q0 231 104.5 421.5t248.5 291.5q178 123 415 123q209 0 340 -117q88 -76 129 -189.5t41 -226.5v-2q0 -213 -86 -394t-219 -290q-186 -152 -454 -151q-238 0 -383 151q-136 141 -136 383zM358 500q0 -178 78 -283q82 -106 233.5 -106t260.5 106q82 78 141 242 t59 360q0 188 -71 289q-76 111 -223 111q-154 0 -271 -115q-82 -80 -144.5 -242t-62.5 -360v-2zM715 1530q158 106 360 237q49 -72 80 -141q-59 -29 -194.5 -93.5t-194.5 -92.5q-33 53 -51 90z" />
<glyph unicode="&#xd4;" horiz-adv-x="1449" d="M106 514q0 231 104.5 421.5t248.5 291.5q178 123 415 123q209 0 340 -117q88 -76 129 -189.5t41 -226.5v-2q0 -213 -86 -394t-219 -290q-186 -152 -454 -151q-238 0 -383 151q-136 141 -136 383zM358 500q0 -178 78 -283q82 -106 233.5 -106t260.5 106q82 78 141 242 t59 360q0 188 -71 289q-76 111 -223 111q-154 0 -271 -115q-82 -80 -144.5 -242t-62.5 -360v-2zM590 1526q27 20 291 213q27 2 84 2q35 -35 108.5 -110t106.5 -107q-29 -35 -72 -74q-59 45 -199 149q-113 -68 -262 -153q-39 47 -57 80z" />
<glyph unicode="&#xd5;" horiz-adv-x="1449" d="M106 514q0 231 104.5 421.5t248.5 291.5q178 123 415 123q209 0 340 -117q88 -76 129 -189.5t41 -226.5v-2q0 -213 -86 -394t-219 -290q-186 -152 -454 -151q-238 0 -383 151q-136 141 -136 383zM358 500q0 -178 78 -283q82 -106 233.5 -106t260.5 106q82 78 141 242 t59 360q0 188 -71 289q-76 111 -223 111q-154 0 -271 -115q-82 -80 -144.5 -242t-62.5 -360v-2zM571 1470q10 86 73 153t132 67h2q53 0 144 -56q63 -41 102 -41q27 0 51.5 28t30.5 65h94q-10 -90 -65.5 -157t-139.5 -67q-43 0 -125 51q-74 47 -116 48q-27 0 -53.5 -26 t-34.5 -65h-95z" />
<glyph unicode="&#xd6;" horiz-adv-x="1449" d="M106 514q0 231 104.5 421.5t248.5 291.5q178 123 415 123q209 0 340 -117q88 -76 129 -189.5t41 -226.5v-2q0 -213 -86 -394t-219 -290q-186 -152 -454 -151q-238 0 -383 151q-136 141 -136 383zM358 500q0 -178 78 -283q82 -106 233.5 -106t260.5 106q82 78 141 242 t59 360q0 188 -71 289q-76 111 -223 111q-154 0 -271 -115q-82 -80 -144.5 -242t-62.5 -360v-2zM612 1559q0 45 31 78.5t84 33.5h2q45 0 68.5 -27.5t23.5 -64.5q0 -45 -30.5 -78t-79.5 -33q-41 0 -70 26t-29 65zM987 1561q0 45 31 77.5t80 32.5h2q45 0 69.5 -27.5 t24.5 -64.5q0 -47 -30.5 -79t-76.5 -32q-47 0 -73.5 26t-26.5 67z" />
<glyph unicode="&#xd7;" d="M119 143q88 90 325 336q-211 215 -301 303q33 39 107 109q70 -72 297 -307q61 63 165.5 172.5t135.5 140.5q63 -51 108 -106q-199 -199 -309 -312q35 -35 151.5 -157.5t172.5 -178.5q-43 -51 -94 -94q-205 209 -332 334q-233 -233 -332 -334q-65 61 -94 94z" />
<glyph unicode="&#xd8;" horiz-adv-x="1449" d="M82 -43q61 74 158 184q-133 141 -134 375q0 244 111 434.5t264 288.5q168 111 393 111h3q164 0 272 -82q25 33 73 92t64 80q57 -39 111 -92q-90 -106 -137 -164q123 -150 122 -369q0 -199 -78.5 -378t-209.5 -292q-197 -166 -461 -165q-172 0 -291 79 q-115 -131 -156 -178q-67 43 -104 76zM340 496q0 -123 45 -205q47 59 160.5 205.5t175.5 222.5q195 248 326 411q-80 88 -218 89h-2q-150 0 -262 -111q-90 -94 -157.5 -251.5t-67.5 -360.5zM457 193q76 -82 219 -82h2q162 0 264 116q207 219 207 598q0 123 -41 191 q-66 -84 -177.5 -228.5t-127.5 -164.5q-305 -379 -346 -430z" />
<glyph unicode="&#xd9;" horiz-adv-x="1347" d="M166 1200l24 129q35 0 117 -1t121 -1q49 0 142.5 1t131.5 1q-10 -63 -24 -129l-150 -6q-10 0 -14 -14l-111 -637q-41 -227 27 -322q68 -92 199 -92q125 0 217 88q98 88 139 328q59 334 107 641q0 8 -9 8l-157 4q4 16 11 61.5t11 67.5h252q39 0 114 1t105 1 q-12 -80 -22 -129l-117 -6l-111 -631q-55 -311 -211 -450q-150 -133 -366 -133q-229 0 -342 120q-129 137 -78 432l113 664zM567 1624q33 61 84 139q57 -37 182 -120.5t179 -118.5q-23 -47 -56 -88q-59 29 -194.5 94t-194.5 94z" />
<glyph unicode="&#xda;" horiz-adv-x="1347" d="M166 1200l24 129q35 0 117 -1t121 -1q49 0 142.5 1t131.5 1q-10 -63 -24 -129l-150 -6q-10 0 -14 -14l-111 -637q-41 -227 27 -322q68 -92 199 -92q125 0 217 88q98 88 139 328q59 334 107 641q0 8 -9 8l-157 4q4 16 11 61.5t11 67.5h252q39 0 114 1t105 1 q-12 -80 -22 -129l-117 -6l-111 -631q-55 -311 -211 -450q-150 -133 -366 -133q-229 0 -342 120q-129 137 -78 432l113 664zM690 1524q158 106 361 237q49 -72 79 -141q-59 -29 -194 -93.5t-195 -92.5q-33 53 -51 90z" />
<glyph unicode="&#xdb;" horiz-adv-x="1347" d="M166 1200l24 129q35 0 117 -1t121 -1q49 0 142.5 1t131.5 1q-10 -63 -24 -129l-150 -6q-10 0 -14 -14l-111 -637q-41 -227 27 -322q68 -92 199 -92q125 0 217 88q98 88 139 328q59 334 107 641q0 8 -9 8l-157 4q4 16 11 61.5t11 67.5h252q39 0 114 1t105 1 q-12 -80 -22 -129l-117 -6l-111 -631q-55 -311 -211 -450q-150 -133 -366 -133q-229 0 -342 120q-129 137 -78 432l113 664zM553 1526q27 20 291 213q27 2 84 2q35 -35 108.5 -110t106.5 -107q-29 -35 -72 -74q-59 45 -199 149q-113 -68 -262 -153q-39 47 -57 80z" />
<glyph unicode="&#xdc;" horiz-adv-x="1347" d="M166 1200l24 129q35 0 117 -1t121 -1q49 0 142.5 1t131.5 1q-10 -63 -24 -129l-150 -6q-10 0 -14 -14l-111 -637q-41 -227 27 -322q68 -92 199 -92q125 0 217 88q98 88 139 328q59 334 107 641q0 8 -9 8l-157 4q4 16 11 61.5t11 67.5h252q39 0 114 1t105 1 q-12 -80 -22 -129l-117 -6l-111 -631q-55 -311 -211 -450q-150 -133 -366 -133q-229 0 -342 120q-129 137 -78 432l113 664zM567 1559q0 45 31 78.5t84 33.5h2q45 0 68.5 -27.5t23.5 -64.5q0 -45 -30.5 -78t-79.5 -33q-41 0 -70 26t-29 65zM942 1561q0 45 31 77.5t80 32.5h2 q45 0 69.5 -27.5t24.5 -64.5q0 -47 -31 -79t-76 -32q-47 0 -73.5 26t-26.5 67z" />
<glyph unicode="&#xdd;" horiz-adv-x="1130" d="M76 1202q4 16 12 60.5t12 66.5h219q53 0 153.5 1t137.5 1q-4 -25 -24 -129l-148 -8q63 -231 160 -532h14q244 356 338 522q6 10 -4 10l-141 6q4 25 24 129h279q29 0 85 1t79 1q-23 -113 -27 -129l-88 -6q-264 -373 -502 -688l-67 -371l170 -8l-25 -129q-39 0 -133 1 t-141 1q-43 0 -136.5 -1t-138.5 -1q4 25 13.5 69t13.5 60l139 6q10 0 15 12l61 361q-74 193 -242 678q0 10 -10 10zM600 1524q158 106 361 237q49 -72 79 -141q-59 -29 -194 -93.5t-195 -92.5q-33 53 -51 90z" />
<glyph unicode="&#xde;" horiz-adv-x="1130" d="M8 0q4 20 12.5 63t10.5 64l110 6q10 0 11 12l178 1049l-125 6q18 94 26 129h250h246q-4 -25 -25 -129l-141 -6q-8 0 -8 -10l-18 -107q23 2 63 2q172 0 281 -43q98 -39 148 -123t50 -182q0 -141 -81 -248.5t-195 -152.5q-123 -51 -305 -51q-68 0 -101 4l-26 -150l202 -4 q-10 -66 -22 -129h-316h-225zM418 416q2 -20 84 -21q135 0 205 47q143 84 143 279q0 106 -62.5 177t-187.5 71q-74 0 -86 -6z" />
<glyph unicode="&#xdf;" horiz-adv-x="1210" d="M20 -346q121 707 189 1081h-162q4 20 11.5 63.5t11.5 63.5l149 8q12 0 12 15q27 141 68 227t121 154q156 131 330 131q143 0 229 -103q102 -123 78 -338q-25 -18 -84.5 -53t-91.5 -57q-106 -70 -107 -152q0 -45 30 -71.5t107 -61.5q104 -49 156.5 -106.5t52.5 -151.5 q0 -160 -137 -252q-109 -72 -281 -71q-143 0 -229 34q4 106 16 269q55 6 117 6l17 -135q4 -18 12 -23q37 -25 104 -25q78 0 125 37q49 37 49 107q0 55 -28.5 87t-106.5 69q-104 53 -156.5 104t-52.5 143q0 129 162 242q92 61 119 96q12 131 -41 199q-51 61 -119 61 q-80 0 -141 -65q-43 -49 -68.5 -135t-54.5 -252q-53 -317 -203 -1141q-66 -4 -203 -4z" />
<glyph unicode="&#xe0;" horiz-adv-x="1007" d="M29 186q0 123 59 291q25 68 62.5 135.5t90 134t122 108.5t143.5 42q117 0 209 -92h12l47 106q94 -23 168 -49q-111 -393 -180 -727q-4 -12 10 -12q31 0 127 29q12 -59 19 -119q-150 -51 -287 -51q-8 0 -32 18t-32 37q4 29 37 182l-18 4q-227 -246 -377 -250q-39 6 -88 41 t-72 80q-20 39 -20 92zM250 219q0 -37 15.5 -58.5t39.5 -21.5q59 0 173 109.5t138 181.5q25 63 62 242q-47 80 -143 80h-3q-61 0 -115.5 -65.5t-90.5 -154.5q-76 -174 -76 -313zM387 1239q49 61 107 111q90 -86 290 -287q-39 -47 -73 -76q-256 203 -324 252z" />
<glyph unicode="&#xe1;" horiz-adv-x="1007" d="M29 186q0 123 59 291q25 68 62.5 135.5t90 134t122 108.5t143.5 42q117 0 209 -92h12l47 106q94 -23 168 -49q-111 -393 -180 -727q-4 -12 10 -12q31 0 127 29q12 -59 19 -119q-150 -51 -287 -51q-8 0 -32 18t-32 37q4 29 37 182l-18 4q-227 -246 -377 -250q-39 6 -88 41 t-72 80q-20 39 -20 92zM250 219q0 -37 15.5 -58.5t39.5 -21.5q59 0 173 109.5t138 181.5q25 63 62 242q-47 80 -143 80h-3q-61 0 -115.5 -65.5t-90.5 -154.5q-76 -174 -76 -313zM528 1065q41 35 318 278q57 -59 94 -120q-88 -61 -344 -238q-37 39 -68 80z" />
<glyph unicode="&#xe2;" horiz-adv-x="1007" d="M29 186q0 123 59 291q25 68 62.5 135.5t90 134t122 108.5t143.5 42q117 0 209 -92h12l47 106q94 -23 168 -49q-111 -393 -180 -727q-4 -12 10 -12q31 0 127 29q12 -59 19 -119q-150 -51 -287 -51q-8 0 -32 18t-32 37q4 29 37 182l-18 4q-227 -246 -377 -250q-39 6 -88 41 t-72 80q-20 39 -20 92zM250 219q0 -37 15.5 -58.5t39.5 -21.5q59 0 173 109.5t138 181.5q25 63 62 242q-47 80 -143 80h-3q-61 0 -115.5 -65.5t-90.5 -154.5q-76 -174 -76 -313zM360 1057q43 43 130.5 131t125.5 127q33 2 101 2q29 -43 92 -142.5t80 -123.5q-35 -31 -80 -60 q-23 25 -77 89.5t-83 95.5q-41 -35 -118.5 -101.5t-100.5 -85.5q-33 29 -70 68z" />
<glyph unicode="&#xe3;" horiz-adv-x="1007" d="M29 186q0 123 59 291q25 68 62.5 135.5t90 134t122 108.5t143.5 42q117 0 209 -92h12l47 106q94 -23 168 -49q-111 -393 -180 -727q-4 -12 10 -12q31 0 127 29q12 -59 19 -119q-150 -51 -287 -51q-8 0 -32 18t-32 37q4 29 37 182l-18 4q-227 -246 -377 -250q-39 6 -88 41 t-72 80q-20 39 -20 92zM250 219q0 -37 15.5 -58.5t39.5 -21.5q59 0 173 109.5t138 181.5q25 63 62 242q-47 80 -143 80h-3q-61 0 -115.5 -65.5t-90.5 -154.5q-76 -174 -76 -313zM350 1026q16 100 69.5 164.5t117.5 64.5h2q16 0 31.5 -3t29.5 -11t23.5 -13t26 -17.5 t22.5 -16.5q68 -49 96 -49q55 0 80 106q47 4 90 0q-12 -100 -64.5 -166.5t-121.5 -66.5q-37 0 -125 55q-78 57 -103 57q-51 0 -82 -104h-92z" />
<glyph unicode="&#xe4;" horiz-adv-x="1007" d="M29 186q0 123 59 291q25 68 62.5 135.5t90 134t122 108.5t143.5 42q117 0 209 -92h12l47 106q94 -23 168 -49q-111 -393 -180 -727q-4 -12 10 -12q31 0 127 29q12 -59 19 -119q-150 -51 -287 -51q-8 0 -32 18t-32 37q4 29 37 182l-18 4q-227 -246 -377 -250q-39 6 -88 41 t-72 80q-20 39 -20 92zM250 219q0 -37 15.5 -58.5t39.5 -21.5q59 0 173 109.5t138 181.5q25 63 62 242q-47 80 -143 80h-3q-61 0 -115.5 -65.5t-90.5 -154.5q-76 -174 -76 -313zM362 1118q0 41 31 75t80 34h2q45 0 68.5 -26.5t23.5 -61.5q0 -47 -29.5 -80t-78.5 -33 q-41 0 -69 25.5t-28 66.5zM711 1116q0 43 28.5 77t79.5 34h2q41 0 66.5 -28t25.5 -64q0 -43 -30.5 -76t-75.5 -33t-70.5 26.5t-25.5 63.5z" />
<glyph unicode="&#xe5;" horiz-adv-x="1007" d="M29 186q0 123 59 291q25 68 62.5 135.5t90 134t122 108.5t143.5 42q117 0 209 -92h12l47 106q94 -23 168 -49q-111 -393 -180 -727q-4 -12 10 -12q31 0 127 29q12 -59 19 -119q-150 -51 -287 -51q-8 0 -32 18t-32 37q4 29 37 182l-18 4q-227 -246 -377 -250q-39 6 -88 41 t-72 80q-20 39 -20 92zM250 219q0 -37 15.5 -58.5t39.5 -21.5q59 0 173 109.5t138 181.5q25 63 62 242q-47 80 -143 80h-3q-61 0 -115.5 -65.5t-90.5 -154.5q-76 -174 -76 -313zM428 1176q0 86 68.5 143t169.5 57h2q82 0 134 -45t52 -114q0 -86 -65.5 -146.5t-165.5 -60.5 q-80 0 -137.5 44t-57.5 122zM547 1182q0 -39 24.5 -64.5t61.5 -25.5q43 0 73.5 29.5t30.5 88.5q0 39 -23.5 61.5t-60.5 22.5h-2q-43 0 -73.5 -30.5t-30.5 -81.5z" />
<glyph unicode="&#xe6;" horiz-adv-x="1431" d="M31 186q0 125 61 295q35 94 87 182.5t142.5 161t188.5 72.5q86 0 147.5 -37t122.5 -106h15q143 143 335 143q106 0 173 -69.5t71 -157.5q-8 -59 -37.5 -115.5t-70.5 -87.5q-145 -82 -447 -82q-16 -59 -16 -121q0 -63 35.5 -100t97.5 -37q131 0 326 94q23 -57 34 -108 q-240 -133 -452 -133q-88 0 -154.5 50t-85.5 128q-6 25 -6 59l-12 4q-221 -242 -373 -248q-41 6 -89 40t-73 81q-20 39 -20 92zM252 217q0 -33 16.5 -55.5t38.5 -22.5q57 0 164 100.5t141 176.5q39 141 90 233q-61 102 -165 103q-117 0 -211 -224q-74 -172 -74 -309v-2z M838 500q164 -4 254 43q70 37 69 102q0 51 -26.5 90t-73.5 39h-2q-76 0 -131 -72q-63 -87 -90 -202z" />
<glyph unicode="&#xe7;" horiz-adv-x="796" d="M39 270q0 113 50 244t149 229q154 154 376 154q119 0 168 -43q-2 -39 -38.5 -98.5t-63.5 -71.5q-111 61 -164 61q-80 0 -135 -73q-47 -63 -80 -168t-33 -193q0 -182 148 -182q84 0 246 59l30 -110q-100 -49 -209 -76l-141 -129q53 -8 85 -46t32 -85q0 -86 -86 -143.5 t-230 -59.5l4 88q164 8 164 99q0 74 -108 77q-2 8 -6 27.5t-7 28.5l138 125q-4 -2 -15 -2q-102 0 -188 77.5t-86 210.5z" />
<glyph unicode="&#xe8;" horiz-adv-x="892" d="M37 246v2q0 113 53 251t154 240q156 158 338 158q117 0 183 -70.5t71 -162.5q-10 -59 -42 -118t-73 -83q-154 -78 -438 -78q-18 -55 -19 -119q0 -66 35 -102.5t98 -36.5q137 0 326 94q23 -57 35 -108q-227 -133 -453 -133q-104 0 -186 72.5t-82 193.5zM301 500 q160 -4 252 43q70 35 70 102q0 51 -27 90t-74 39h-2q-68 0 -125 -69q-59 -70 -94 -205zM350 1237q49 61 107 111q90 -86 291 -287q-39 -47 -74 -76q-256 203 -324 252z" />
<glyph unicode="&#xe9;" horiz-adv-x="892" d="M37 246v2q0 113 53 251t154 240q156 158 338 158q117 0 183 -70.5t71 -162.5q-10 -59 -42 -118t-73 -83q-154 -78 -438 -78q-18 -55 -19 -119q0 -66 35 -102.5t98 -36.5q137 0 326 94q23 -57 35 -108q-227 -133 -453 -133q-104 0 -186 72.5t-82 193.5zM301 500 q160 -4 252 43q70 35 70 102q0 51 -27 90t-74 39h-2q-68 0 -125 -69q-59 -70 -94 -205zM440 1063q41 35 318 278q57 -59 94 -120q-88 -61 -344 -238q-37 41 -68 80z" />
<glyph unicode="&#xea;" horiz-adv-x="892" d="M37 246v2q0 113 53 251t154 240q156 158 338 158q117 0 183 -70.5t71 -162.5q-10 -59 -42 -118t-73 -83q-154 -78 -438 -78q-18 -55 -19 -119q0 -66 35 -102.5t98 -36.5q137 0 326 94q23 -57 35 -108q-227 -133 -453 -133q-104 0 -186 72.5t-82 193.5zM301 500 q160 -4 252 43q70 35 70 102q0 51 -27 90t-74 39h-2q-68 0 -125 -69q-59 -70 -94 -205zM315 1055q43 43 130 131t126 127q33 2 101 2q29 -43 92 -142.5t80 -123.5q-35 -31 -80 -60q-23 25 -77 89.5t-83 95.5q-41 -35 -118.5 -101.5t-100.5 -85.5q-33 29 -70 68z" />
<glyph unicode="&#xeb;" horiz-adv-x="892" d="M37 246v2q0 113 53 251t154 240q156 158 338 158q117 0 183 -70.5t71 -162.5q-10 -59 -42 -118t-73 -83q-154 -78 -438 -78q-18 -55 -19 -119q0 -66 35 -102.5t98 -36.5q137 0 326 94q23 -57 35 -108q-227 -133 -453 -133q-104 0 -186 72.5t-82 193.5zM301 500 q160 -4 252 43q70 35 70 102q0 51 -27 90t-74 39h-2q-68 0 -125 -69q-59 -70 -94 -205zM328 1114q0 41 30.5 75t79.5 34h2q45 0 68.5 -27t23.5 -61q0 -47 -29.5 -80t-78.5 -33q-41 0 -68.5 25.5t-27.5 66.5zM676 1112q0 43 28.5 77t79.5 34h2q41 0 67 -28t26 -65 q0 -43 -31 -75.5t-76 -32.5t-70.5 26.5t-25.5 63.5z" />
<glyph unicode="&#xec;" horiz-adv-x="563" d="M51 844q68 8 146.5 22.5t127 22.5t58.5 8t36.5 -23.5t37.5 -42.5q-25 -102 -89.5 -381.5t-72.5 -318.5q-4 -14 6 -14q43 0 145 28q6 -41 15 -118q-150 -45 -309 -45q-10 0 -41 27.5t-39 47.5q25 113 77 350.5t70 319.5l-166 -4q-2 41 -2 121zM117 1239q49 61 106 111 q90 -86 291 -287q-39 -47 -74 -76q-255 203 -323 252z" />
<glyph unicode="&#xed;" horiz-adv-x="563" d="M51 844q68 8 146.5 22.5t127 22.5t58.5 8t36.5 -23.5t37.5 -42.5q-25 -102 -89.5 -381.5t-72.5 -318.5q-4 -14 6 -14q43 0 145 28q6 -41 15 -118q-150 -45 -309 -45q-10 0 -41 27.5t-39 47.5q25 113 77 350.5t70 319.5l-166 -4q-2 41 -2 121zM233 1065q41 35 318 278 q57 -59 94 -120q-88 -61 -344 -238q-37 39 -68 80z" />
<glyph unicode="&#xee;" horiz-adv-x="563" d="M51 844q68 8 146.5 22.5t127 22.5t58.5 8t36.5 -23.5t37.5 -42.5q-25 -102 -89.5 -381.5t-72.5 -318.5q-4 -14 6 -14q43 0 145 28q6 -41 15 -118q-150 -45 -309 -45q-10 0 -41 27.5t-39 47.5q25 113 77 350.5t70 319.5l-166 -4q-2 41 -2 121zM86 1057q43 43 130 131 t126 127q33 2 100 2q29 -43 92.5 -142.5t79.5 -123.5q-35 -31 -79 -60q-23 25 -77.5 89.5t-82.5 95.5q-41 -35 -119 -101.5t-100 -85.5q-33 29 -70 68z" />
<glyph unicode="&#xef;" horiz-adv-x="563" d="M51 844q68 8 146.5 22.5t127 22.5t58.5 8t36.5 -23.5t37.5 -42.5q-25 -102 -89.5 -381.5t-72.5 -318.5q-4 -14 6 -14q43 0 145 28q6 -41 15 -118q-150 -45 -309 -45q-10 0 -41 27.5t-39 47.5q25 113 77 350.5t70 319.5l-166 -4q-2 41 -2 121zM86 1118q0 41 30.5 75 t80.5 34h2q45 0 68.5 -26.5t23.5 -61.5q0 -47 -30 -80t-79 -33q-41 0 -68.5 25.5t-27.5 66.5zM434 1116q0 43 29 77t80 34h2q41 0 66.5 -28t25.5 -64q0 -43 -31 -76t-76 -33t-70.5 26.5t-25.5 63.5z" />
<glyph unicode="&#xf0;" horiz-adv-x="950" d="M43 289v2q0 141 56.5 269t140.5 202q117 106 264 106q94 0 162 -59l10 4q-14 168 -90 289q-137 -59 -260 -119q-18 31 -52 107l123 55l123 55q-100 119 -266 158q20 61 49 112q109 -12 211 -71.5t160 -128.5q53 25 235 106q37 -76 45 -112q-84 -39 -206 -93 q129 -190 129 -456q0 -428 -209 -623q-119 -113 -314 -112q-164 0 -245 104q-66 76 -66 205zM274 279q0 -84 25 -134q33 -53 94 -53q80 0 139 82q49 72 86 199t37 243q0 59 -18 82q-37 57 -117 58q-72 0 -139 -82q-37 -41 -72 -158t-35 -235v-2z" />
<glyph unicode="&#xf1;" horiz-adv-x="1097" d="M59 0q96 420 164 729l-155 -12q-2 43 -2 123q61 10 133.5 24.5t117.5 24.5t52 10q10 0 35.5 -19.5t35.5 -37.5q-20 -94 -45 -199l19 -6q109 131 219 195.5t186 66.5q96 -14 148 -113q14 -29 14 -69q0 -141 -150 -584q-4 -14 9 -14q37 0 135 24q8 -53 12 -116 q-141 -45 -313 -45q-12 0 -37 22.5t-35 48.5q76 248 115 391q41 170 41 205q0 59 -51 60q-84 0 -203 -121t-146 -219q-37 -139 -90 -367q-70 -2 -209 -2zM379 1022q16 100 69.5 164.5t116.5 64.5h2q16 0 31.5 -3t30 -11t24 -13t25.5 -17.5t22 -16.5q68 -49 97 -49 q55 0 80 106q47 4 90 0q-12 -100 -64.5 -166.5t-122.5 -66.5q-37 0 -125 55q-78 57 -102 57q-51 0 -82 -104h-92z" />
<glyph unicode="&#xf2;" horiz-adv-x="966" d="M45 276q0 154 57.5 285t151.5 215q137 123 321 123q152 0 232 -98q74 -82 74 -226v-2q0 -139 -59.5 -268t-159.5 -221q-121 -104 -310 -104q-160 0 -246 104q-61 73 -61 192zM274 283q0 -88 25 -136q33 -53 96 -53h2q86 0 144 82q45 59 78.5 188.5t33.5 245.5 q0 80 -24 123q-29 51 -90 51q-84 0 -148 -84q-43 -55 -80 -175.5t-37 -241.5zM362 1237q49 61 107 111q90 -86 291 -287q-39 -47 -74 -76q-256 203 -324 252z" />
<glyph unicode="&#xf3;" horiz-adv-x="966" d="M45 276q0 154 57.5 285t151.5 215q137 123 321 123q152 0 232 -98q74 -82 74 -226v-2q0 -139 -59.5 -268t-159.5 -221q-121 -104 -310 -104q-160 0 -246 104q-61 73 -61 192zM274 283q0 -88 25 -136q33 -53 96 -53h2q86 0 144 82q45 59 78.5 188.5t33.5 245.5 q0 80 -24 123q-29 51 -90 51q-84 0 -148 -84q-43 -55 -80 -175.5t-37 -241.5zM446 1063q41 35 318 278q57 -59 94 -120q-88 -61 -344 -238q-37 41 -68 80z" />
<glyph unicode="&#xf4;" horiz-adv-x="966" d="M45 276q0 154 57.5 285t151.5 215q137 123 321 123q152 0 232 -98q74 -82 74 -226v-2q0 -139 -59.5 -268t-159.5 -221q-121 -104 -310 -104q-160 0 -246 104q-61 73 -61 192zM274 283q0 -88 25 -136q33 -53 96 -53h2q86 0 144 82q45 59 78.5 188.5t33.5 245.5 q0 80 -24 123q-29 51 -90 51q-84 0 -148 -84q-43 -55 -80 -175.5t-37 -241.5zM311 1055q43 43 130 131t126 127q33 2 101 2q29 -43 92 -142.5t80 -123.5q-35 -31 -80 -60q-23 25 -77 89.5t-83 95.5q-41 -35 -119 -101.5t-100 -85.5q-33 29 -70 68z" />
<glyph unicode="&#xf5;" horiz-adv-x="966" d="M45 276q0 154 57.5 285t151.5 215q137 123 321 123q152 0 232 -98q74 -82 74 -226v-2q0 -139 -59.5 -268t-159.5 -221q-121 -104 -310 -104q-160 0 -246 104q-61 73 -61 192zM274 283q0 -88 25 -136q33 -53 96 -53h2q86 0 144 82q45 59 78.5 188.5t33.5 245.5 q0 80 -24 123q-29 51 -90 51q-84 0 -148 -84q-43 -55 -80 -175.5t-37 -241.5zM311 1022q16 100 69.5 164.5t117.5 64.5h2q16 0 31.5 -3t29.5 -11t23.5 -13t26 -17.5t22.5 -16.5q68 -49 96 -49q55 0 80 106q47 4 90 0q-12 -100 -64.5 -166.5t-121.5 -66.5q-37 0 -125 55 q-78 57 -103 57q-51 0 -82 -104h-92z" />
<glyph unicode="&#xf6;" horiz-adv-x="966" d="M45 276q0 154 57.5 285t151.5 215q137 123 321 123q152 0 232 -98q74 -82 74 -226v-2q0 -139 -59.5 -268t-159.5 -221q-121 -104 -310 -104q-160 0 -246 104q-61 73 -61 192zM274 283q0 -88 25 -136q33 -53 96 -53h2q86 0 144 82q45 59 78.5 188.5t33.5 245.5 q0 80 -24 123q-29 51 -90 51q-84 0 -148 -84q-43 -55 -80 -175.5t-37 -241.5zM338 1114q0 41 30.5 75t80.5 34h2q45 0 68.5 -27t23.5 -61q0 -47 -30 -80t-79 -33q-41 0 -68.5 25.5t-27.5 66.5zM686 1112q0 43 28.5 77t80.5 34h2q41 0 66.5 -28t25.5 -65q0 -43 -31 -75.5 t-76 -32.5t-70.5 26.5t-25.5 63.5z" />
<glyph unicode="&#xf7;" d="M102 418q0 72 7 139q94 0 849 6q0 -78 -6 -145h-850zM414 168q0 49 33.5 85t82.5 36h2q49 0 80 -35t31 -88q0 -49 -29.5 -84t-81.5 -35q-55 0 -87.5 35t-30.5 86zM414 813q0 51 33.5 86t84.5 35h3q49 0 79.5 -35t30.5 -84q0 -51 -31.5 -87t-85.5 -36q-49 0 -81.5 36 t-32.5 85z" />
<glyph unicode="&#xf8;" horiz-adv-x="966" d="M-20 -23l122 129q-55 78 -55 191q0 143 57.5 270t151.5 213q131 117 309 117h2q106 0 174 -51q33 37 109 123q43 -33 88 -80q-31 -33 -111 -125q53 -78 54 -191q0 -139 -57.5 -268t-159.5 -219q-123 -106 -289 -106q-117 0 -193 53q-20 -23 -61 -65t-62 -62 q-54 42 -79 71zM258 330q0 -55 2 -78q55 68 183 225.5t196 239.5q-25 66 -104 65h-3q-86 0 -153 -88q-45 -55 -83 -158.5t-38 -205.5zM291 154q37 -59 112 -60h3q86 0 157 88q106 141 107 346v78q-51 -61 -181 -216.5t-198 -235.5z" />
<glyph unicode="&#xf9;" horiz-adv-x="1052" d="M55 836q55 10 134 25.5t129.5 25.5t56.5 10q14 0 39.5 -25.5t34.5 -46.5q-51 -160 -105 -376q-43 -190 -43 -234q0 -63 51 -63q68 0 182.5 125.5t137.5 209.5q37 154 84 387q72 2 211 3q-6 -29 -40 -191t-67 -317.5t-47 -229.5q-4 -14 10 -14q41 0 133 29q8 -39 21 -117 q-141 -55 -295 -55q-10 0 -31.5 20.5t-32.5 38.5q6 49 31 186l-16 4q-227 -252 -371 -258q-92 20 -149 101q-27 35 -27 92q0 143 123 561l-146 -12q-4 43 -8 121zM358 1239q49 61 107 111q90 -86 291 -287q-39 -47 -74 -76q-256 203 -324 252z" />
<glyph unicode="&#xfa;" horiz-adv-x="1052" d="M55 836q55 10 134 25.5t129.5 25.5t56.5 10q14 0 39.5 -25.5t34.5 -46.5q-51 -160 -105 -376q-43 -190 -43 -234q0 -63 51 -63q68 0 182.5 125.5t137.5 209.5q37 154 84 387q72 2 211 3q-6 -29 -40 -191t-67 -317.5t-47 -229.5q-4 -14 10 -14q41 0 133 29q8 -39 21 -117 q-141 -55 -295 -55q-10 0 -31.5 20.5t-32.5 38.5q6 49 31 186l-16 4q-227 -252 -371 -258q-92 20 -149 101q-27 35 -27 92q0 143 123 561l-146 -12q-4 43 -8 121zM524 1065q41 35 318 278q57 -59 94 -120q-88 -61 -344 -238q-37 39 -68 80z" />
<glyph unicode="&#xfb;" horiz-adv-x="1052" d="M55 836q55 10 134 25.5t129.5 25.5t56.5 10q14 0 39.5 -25.5t34.5 -46.5q-51 -160 -105 -376q-43 -190 -43 -234q0 -63 51 -63q68 0 182.5 125.5t137.5 209.5q37 154 84 387q72 2 211 3q-6 -29 -40 -191t-67 -317.5t-47 -229.5q-4 -14 10 -14q41 0 133 29q8 -39 21 -117 q-141 -55 -295 -55q-10 0 -31.5 20.5t-32.5 38.5q6 49 31 186l-16 4q-227 -252 -371 -258q-92 20 -149 101q-27 35 -27 92q0 143 123 561l-146 -12q-4 43 -8 121zM367 1057q43 43 130 131t126 127q33 2 100 2q29 -43 92.5 -142.5t79.5 -123.5q-35 -31 -80 -60 q-23 25 -77 89.5t-83 95.5q-41 -35 -118.5 -101.5t-100.5 -85.5q-34 29 -69 68z" />
<glyph unicode="&#xfc;" horiz-adv-x="1052" d="M55 836q55 10 134 25.5t129.5 25.5t56.5 10q14 0 39.5 -25.5t34.5 -46.5q-51 -160 -105 -376q-43 -190 -43 -234q0 -63 51 -63q68 0 182.5 125.5t137.5 209.5q37 154 84 387q72 2 211 3q-6 -29 -40 -191t-67 -317.5t-47 -229.5q-4 -14 10 -14q41 0 133 29q8 -39 21 -117 q-141 -55 -295 -55q-10 0 -31.5 20.5t-32.5 38.5q6 49 31 186l-16 4q-227 -252 -371 -258q-92 20 -149 101q-27 35 -27 92q0 143 123 561l-146 -12q-4 43 -8 121zM367 1118q0 41 30.5 75t79.5 34h2q45 0 68.5 -26.5t23.5 -61.5q0 -47 -29.5 -80t-78.5 -33q-41 0 -68.5 25.5 t-27.5 66.5zM715 1116q0 43 28.5 77t79.5 34h2q41 0 67 -28t26 -64q0 -43 -31 -76t-76 -33t-70.5 26.5t-25.5 63.5z" />
<glyph unicode="&#xfd;" horiz-adv-x="931" d="M-100 -369q102 43 204 115q123 86 185 178q-51 276 -129 801l-148 -23q-6 41 -14 119q59 14 133 33.5t114 31t46 11.5q12 0 38.5 -19.5t43.5 -41.5q27 -262 82 -723h14q82 147 119 235q106 260 106 379q0 18 -16 18l-105 -8q-6 61 -6 121q236 37 252 37q14 0 47 -34 t33 -48q0 -94 -66.5 -262t-140.5 -299q-166 -305 -413 -574q-72 -76 -146 -134t-92 -58q-31 0 -84 51t-57 94zM438 1065q41 35 318 278q57 -59 94 -120q-88 -61 -344 -238q-37 39 -68 80z" />
<glyph unicode="&#xfe;" horiz-adv-x="1028" d="M-35 -496q176 938 293 1614l-168 -2v121q94 12 171 24.5t111 18.5t40 6q12 0 36.5 -20.5t36.5 -40.5q-12 -63 -41.5 -208t-50 -248t-31.5 -146l15 -7q225 281 401 285q53 -8 99.5 -46t68.5 -85q16 -35 17 -80q0 -207 -95 -401q-51 -121 -151.5 -215t-229.5 -94 q-125 0 -211 67q-61 -315 -106 -539q-68 -4 -205 -4zM299 188q66 -76 158 -75q63 0 114.5 47t83.5 116q86 182 86 353v2q0 84 -61 84q-76 0 -200 -126t-144 -210q-14 -54 -37 -191z" />
<glyph unicode="&#xff;" horiz-adv-x="931" d="M-100 -369q102 43 204 115q123 86 185 178q-51 276 -129 801l-148 -23q-6 41 -14 119q59 14 133 33.5t114 31t46 11.5q12 0 38.5 -19.5t43.5 -41.5q27 -262 82 -723h14q82 147 119 235q106 260 106 379q0 18 -16 18l-105 -8q-6 61 -6 121q236 37 252 37q14 0 47 -34 t33 -48q0 -94 -66.5 -262t-140.5 -299q-166 -305 -413 -574q-72 -76 -146 -134t-92 -58q-31 0 -84 51t-57 94zM299 1118q0 41 30.5 75t80.5 34h2q45 0 68.5 -26.5t23.5 -61.5q0 -47 -30 -80t-79 -33q-41 0 -68.5 25.5t-27.5 66.5zM647 1116q0 43 29 77t80 34h2 q41 0 66.5 -28t25.5 -64q0 -43 -31 -76t-76 -33t-70.5 26.5t-25.5 63.5z" />
<glyph unicode="&#x152;" horiz-adv-x="1945" d="M102 516v2q0 248 106.5 441.5t254.5 291.5q150 98 364 99q231 0 347 -160q12 68 22 139q20 0 68.5 -1t70.5 -1q43 0 217 1t197 1h174q-14 -111 -43 -336q-23 -2 -71 -4t-52 -2l-4 164q0 31 -39 37q-102 10 -303 10q-18 0 -25 -6l-77 -449q47 0 135 1t133 4q29 0 40 9 t17 31l25 91q43 2 125 -2q-20 -131 -37 -203q-6 -37 -17.5 -105.5t-15.5 -93.5q-41 -2 -125 -2l6 92q2 27 -7 37t-40 10q-82 2 -262 2l-76 -442q-4 -27 16.5 -35t96.5 -8q197 0 258 16q29 6 47 43l84 170q51 -8 129 -30q-70 -205 -117 -330q-43 0 -258 1t-319 1 q-33 0 -90.5 -1t-81.5 -1q8 57 22 147q-152 -166 -401 -165q-242 0 -383 167q-111 133 -111 369zM354 498q0 -174 72 -279q80 -109 238 -108q115 0 203.5 61t142.5 160q68 387 116 698q-78 186 -288 187q-168 0 -275 -113q-84 -86 -146.5 -244t-62.5 -360v-2z" />
<glyph unicode="&#x153;" horiz-adv-x="1456" d="M45 285q0 143 55.5 271t149.5 216q133 125 311 125q188 0 244 -170h12q152 170 336 170q109 0 175.5 -69.5t70.5 -159.5q-20 -141 -109 -199q-150 -84 -446 -84q-16 -59 -16.5 -120.5t36.5 -99.5t92 -38q137 0 330 94q4 -8 37 -108q-240 -133 -432 -133 q-74 0 -132.5 36.5t-82.5 104.5h-12q-119 -141 -308 -141q-164 0 -250 104q-61 76 -61 201zM274 283q0 -82 25 -136q33 -53 98 -53h2q84 0 142 80q43 59 77.5 188.5t34.5 245.5q0 74 -26 125q-23 49 -84 49q-88 0 -152 -84q-43 -53 -80 -173.5t-37 -241.5zM864 500 q164 -4 252 43q70 37 70 104q0 51 -26.5 89t-74.5 38h-2q-68 0 -125 -69q-63 -78 -94 -205z" />
<glyph unicode="&#x178;" horiz-adv-x="1130" d="M76 1202q4 16 12 60.5t12 66.5h219q53 0 153.5 1t137.5 1q-4 -25 -24 -129l-148 -8q63 -231 160 -532h14q244 356 338 522q6 10 -4 10l-141 6q4 25 24 129h279q29 0 85 1t79 1q-23 -113 -27 -129l-88 -6q-264 -373 -502 -688l-67 -371l170 -8l-25 -129q-39 0 -133 1 t-141 1q-43 0 -136.5 -1t-138.5 -1q4 25 13.5 69t13.5 60l139 6q10 0 15 12l61 361q-74 193 -242 678q0 10 -10 10zM461 1559q0 45 30.5 78.5t83.5 33.5h3q45 0 68.5 -27.5t23.5 -64.5q0 -45 -31 -78t-80 -33q-41 0 -69.5 26t-28.5 65zM836 1561q0 45 30.5 77.5t79.5 32.5h2 q45 0 69.5 -27.5t24.5 -64.5q0 -47 -30.5 -79t-75.5 -32q-47 0 -73.5 26t-26.5 67z" />
<glyph unicode="&#x2c6;" horiz-adv-x="1001" d="M305 1057q43 43 130 131t126 127q33 2 101 2q29 -43 92 -142.5t80 -123.5q-35 -31 -80 -60q-23 25 -77 89.5t-83 95.5q-41 -35 -119 -101.5t-100 -85.5q-35 29 -70 68z" />
<glyph unicode="&#x2dc;" horiz-adv-x="1001" d="M309 1028q16 100 69.5 164.5t117.5 64.5h2q16 0 31.5 -3t29.5 -11t23.5 -13t26 -17.5t22.5 -16.5q68 -49 96 -49q55 0 80 106q47 4 90 0q-12 -100 -64.5 -166.5t-121.5 -66.5q-37 0 -125 55q-78 57 -103 58q-51 0 -82 -105h-92z" />
<glyph unicode="&#x2013;" horiz-adv-x="1024" d="M66 449q2 10 10 60t14 75q68 0 207 1t215 1q172 0 438 4q-12 -74 -28 -141h-433h-2h-421z" />
<glyph unicode="&#x2014;" horiz-adv-x="2048" d="M66 449q12 80 24 135q152 0 453 1t452 3q653 0 979 2q-16 -96 -26 -141h-955h-2h-925z" />
<glyph unicode="&#x2018;" horiz-adv-x="423" d="M152 1038q0 119 87 232.5t207 171.5q33 -37 60 -82q-164 -111 -164 -215q0 -61 88 -88q-8 -80 -52 -125t-99 -45h-3q-49 0 -86.5 46t-37.5 105z" />
<glyph unicode="&#x2019;" horiz-adv-x="423" d="M115 963q164 111 164 213q0 61 -89 88q8 80 53.5 125t98.5 45q51 0 89 -45.5t38 -106.5v-2q0 -119 -84 -226.5t-209 -170.5q-32 39 -61 80z" />
<glyph unicode="&#x201a;" horiz-adv-x="495" d="M-18 -227q164 111 163 213q0 61 -88 88q8 80 53.5 125t98.5 45h2q49 0 87 -45t38 -107q0 -119 -84 -228.5t-209 -170.5q-34 41 -61 80z" />
<glyph unicode="&#x201c;" horiz-adv-x="778" d="M150 1053q0 117 80.5 221t203.5 168q31 -35 60 -80q-160 -109 -160 -205q0 -59 86 -86q-8 -78 -50 -121t-98 -43h-2q-47 0 -83.5 44.5t-36.5 101.5zM516 1053q0 115 83 222t200 167q37 -41 61 -80q-160 -109 -160 -205q0 -59 86 -86q-8 -78 -51 -121t-96 -43h-2 q-47 0 -84 44.5t-37 101.5z" />
<glyph unicode="&#x201d;" horiz-adv-x="778" d="M115 979q158 109 157 205q0 61 -86 84q8 78 51.5 122t94.5 44h2q49 0 86 -44t37 -102q0 -115 -84 -221t-201 -166q-41 53 -57 78zM481 979q158 109 158 205q0 61 -86 84q8 78 51 122t94 44h2q47 0 85 -44t38 -102q0 -115 -84 -222.5t-200 -164.5q-50 64 -58 78z" />
<glyph unicode="&#x201e;" horiz-adv-x="833" d="M-31 -211q158 104 158 205q0 63 -86 84q8 78 51 122t94 44h2q49 0 86 -44t37 -102q0 -115 -84 -221t-200 -166q-42 53 -58 78zM334 -211q158 104 158 205q0 63 -86 84q8 78 51 122t94 44h2q47 0 85 -44t38 -102q0 -115 -84 -222t-201 -165q-41 53 -57 78z" />
<glyph unicode="&#x2022;" horiz-adv-x="729" d="M129 537q0 102 67.5 179t172.5 77q102 0 162.5 -69t60.5 -171v-2q0 -104 -66.5 -175t-167.5 -71q-102 0 -165.5 66t-63.5 166z" />
<glyph unicode="&#x2026;" horiz-adv-x="1720" d="M137 109q0 53 39 95t98 42h2q66 0 98 -38t32 -89q0 -59 -40 -98t-100 -39q-57 0 -93 36t-36 91zM711 109q0 53 38.5 95t98.5 42h2q66 0 97.5 -38t31.5 -89q0 -59 -40 -98t-99 -39q-57 0 -93 36t-36 91zM1284 109q0 53 39 95t98 42h2q66 0 97.5 -38t31.5 -89 q0 -59 -39.5 -98t-99.5 -39q-57 0 -93 36t-36 91z" />
<glyph unicode="&#x2039;" horiz-adv-x="573" d="M82 395q10 84 14 105q88 76 344 309q47 -43 74 -78q-82 -96 -246 -293q68 -133 160 -293q-33 -29 -92 -69q-139 184 -254 319z" />
<glyph unicode="&#x203a;" horiz-adv-x="573" d="M14 154q150 172 246 295q-102 193 -160 290q45 41 93 70q150 -193 253 -320q-10 -84 -14 -104q-68 -59 -188.5 -167.5t-155.5 -141.5q-37 35 -74 78z" />
<glyph unicode="&#x20ac;" d="M-8 471l10 88h100q2 63 19 133h-98l10 88h112q90 260 306 416q197 143 458 143q160 0 246 -43q-8 -63 -22.5 -190t-20.5 -188q-27 -2 -80 -4.5t-59 -2.5v217q0 23 -10 27q-49 33 -127 33q-143 0 -258 -101q-133 -119 -193 -307h459l-10 -88h-472q-10 -51 -14 -133h465 l-10 -88h-453q8 -129 72 -211q37 -51 106.5 -85t151.5 -34q131 0 315 68q4 -43 4 -141q-242 -88 -385 -88q-211 0 -362 135q-139 125 -150 356h-110z" />
<glyph unicode="&#x2122;" horiz-adv-x="1314" d="M143 1151q4 63 9 180q39 0 117.5 -1t119.5 -1q39 0 112.5 1t110.5 1q4 -117 9 -180q-14 0 -42 -2t-42 -4l-15 102q-18 6 -80 6v-362h72v-78h-127h-135v78h67v362q-61 0 -77 -6l-17 -102q-53 4 -82 6zM668 813v76l63 2q2 113 2 360l-63 2v78q37 0 110.5 -1t108.5 -1 q57 -203 100 -338h8q84 260 105 338q33 0 102.5 1t106.5 1q0 -51 -2 -78l-64 -2q2 -113 2 -360l64 -2v-76h-113h-100q0 49 2 76l43 2q2 94 2 285h-10q-18 -59 -113 -336h-78q-59 172 -110 342h-11v-291l45 -2v-76h-94h-106z" />
<glyph unicode="&#xe000;" horiz-adv-x="900" d="M0 900h900v-900h-900v900z" />
<glyph unicode="&#xfb01;" horiz-adv-x="1144" d="M31 -346q78 459 182 1081h-162q2 20 10.5 63.5t10.5 63.5q25 2 77 5t74 3q12 0 13 15q23 147 58.5 222t115.5 146q156 141 356 142h2q141 0 262 -52q0 -31 -36 -94t-68 -82q-150 70 -252 70q-88 0 -135 -59q-35 -43 -54.5 -108.5t-38.5 -199.5q170 0 290 7.5t172.5 13.5 t56.5 6q10 0 36.5 -23.5t36.5 -42.5q-27 -111 -91 -394t-70 -306q-8 -14 6 -14q35 0 143 28q12 -84 14 -118q-139 -45 -305 -45q-12 0 -42.5 26.5t-39.5 48.5q25 117 80 364t70 316q-268 0 -377 -2q-113 -647 -190 -1077q-66 -4 -205 -4z" />
<glyph unicode="&#xfb02;" horiz-adv-x="1159" d="M33 -346q88 512 180 1081h-160q4 25 11.5 71t9.5 56q27 2 78 5t73 3q12 0 13 15q25 150 59.5 225.5t116.5 146.5q147 135 372 136h2q86 0 191.5 -22.5t165.5 -55.5q-25 -106 -139.5 -619.5t-124.5 -562.5q-4 -14 6 -14q55 0 168 26q12 -82 14 -122q-180 -41 -334 -41 q-8 0 -36.5 24.5t-41.5 46.5q12 59 66.5 305t83.5 379h-381q-117 -672 -188 -1079q-68 -4 -205 -4zM444 870q61 0 195.5 1t196.5 3q47 223 73 336q-90 35 -215 35h-2q-100 0 -153 -65q-58 -68 -95 -310z" />
<glyph unicode="&#xfb03;" horiz-adv-x="1728" d="M33 -346q82 483 180 1079h-164q8 57 23 127q27 2 78 5t73 3q12 0 17 17q27 150 57.5 221.5t110.5 140.5q152 137 366 137h2q78 0 123 -24q0 -33 -32.5 -94.5t-63.5 -79.5q-61 39 -148 39q-80 0 -125 -58q-31 -41 -47 -101t-39 -198q256 0 371 2q10 0 14 15 q23 150 58 225.5t114 144.5q156 141 357 142q135 0 256 -51q0 -31 -36 -95.5t-69 -81.5q-150 70 -247 70q-86 0 -134 -61q-35 -41 -53 -104.5t-41 -203.5q168 0 288 7.5t172 13.5t56 6q10 0 37 -23.5t37 -42.5q-25 -109 -89.5 -386t-72.5 -314q-8 -14 6 -14q43 0 144 26 q12 -78 14 -116q-139 -45 -305 -45q-12 0 -42 26.5t-36 46.5q72 342 150 680h-381q-35 -193 -102.5 -577.5t-88.5 -497.5q-66 -2 -198 -2q31 184 91 542.5t89 534.5q-53 0 -189.5 -1t-191.5 -1q-20 -123 -86 -491.5t-103 -583.5q-65 -4 -200 -4z" />
<glyph unicode="&#xfb04;" horiz-adv-x="1748" d="M35 -346q82 479 176 1079h-162q2 25 10.5 70t10.5 57q27 2 79 5t74 3q12 0 15 15q27 150 57.5 221.5t105.5 138.5q156 139 373 139q84 0 125 -24q0 -33 -32.5 -94.5t-61.5 -75.5q-88 39 -152 39q-78 0 -125 -60q-31 -41 -46 -97t-40 -202q256 0 371 2q12 0 14 15 q27 150 62 225.5t112 146.5q152 135 375 136h2q82 0 185.5 -22.5t167.5 -55.5q-25 -106 -139.5 -619.5t-125.5 -562.5q-4 -14 9 -14q53 0 165 26q12 -82 15 -122q-180 -41 -332 -41q-10 0 -38 23.5t-38 45.5q10 51 33 156.5t57.5 267.5t57.5 262h-383q-76 -442 -193 -1077 q-63 -2 -198 -2q84 477 182 1077q-53 0 -190.5 -1t-192.5 -1q-33 -193 -101.5 -592t-82.5 -483q-66 -4 -201 -4zM1034 870q266 0 387 2q14 61 38 176t36 164q-86 35 -211 35h-2q-100 0 -152 -67q-37 -43 -56.5 -109t-39.5 -201z" />
</font>
</defs>
</svg>
